<svg xmlns="http://www.w3.org/2000/svg" width="59" height="53" viewBox="0 0 59 53">
    <defs>
        <linearGradient id="a" x1="50%" x2="50%" y1="0%" y2="100%">
            <stop offset="0%" stop-color="#80C3F3"/>
            <stop offset="100%" stop-color="#4A90E2"/>
        </linearGradient>
    </defs>
    <g fill="none" fill-rule="evenodd">
        <rect width="43" height="39" x="8" y="7" fill="#FFF" fill-opacity=".01" rx="2"/>
        <path fill="url(#a)" d="M5.252 38.95c-2.543-3.813-4.007-8.264-4.007-13.023C1.245 11.826 14.065.394 29.88.394c15.814 0 28.635 11.432 28.635 25.533 0 14.102-12.82 25.533-28.635 25.533-4.811 0-9.343-1.063-13.323-2.933L.24 52.356 5.252 38.95z"/>
        <path fill="#FFF" d="M20.078 25.822c0 1.832-1.665 3.317-3.72 3.317-2.054 0-3.719-1.485-3.719-3.317s1.665-3.317 3.72-3.317c2.054 0 3.72 1.485 3.72 3.317M33.717 25.822c0 1.832-1.665 3.317-3.72 3.317-2.054 0-3.72-1.485-3.72-3.317s1.666-3.317 3.72-3.317c2.055 0 3.72 1.485 3.72 3.317M47.356 25.822c0 1.832-1.665 3.317-3.72 3.317-2.054 0-3.72-1.485-3.72-3.317s1.666-3.317 3.72-3.317c2.055 0 3.72 1.485 3.72 3.317"/>
    </g>
</svg>
