<svg xmlns="http://www.w3.org/2000/svg" width="47" height="64" viewBox="0 0 47 64">
    <g fill="none" fill-rule="evenodd">
        <path fill="#7ED321" d="M46.7 16c0-4.8-3.456-8.4-8.294-8.4h-.987V10h.79c.69 0 1.48 0 2.37.3 2.369.8 3.75 2.9 3.75 5.6V55c0 1.6-.493 3-1.579 4.2-1.086 1.2-2.665 1.8-4.344 1.8H9.083c-3.455 0-5.924-2.4-5.924-6V16.6c0-.9 0-1.9.297-2.7.69-2.3 2.37-3.6 4.64-3.9.494-.1 1.086-.1 1.876-.1h.098V7.6H8.688c-.592 0-1.184.1-1.678.2-3.752.9-6.22 4.1-6.22 8V55.4c0 .7.099 1.5.296 2.3.691 2.8 3.456 5.8 7.701 5.8h30.409c3.752 0 7.109-3.3 7.405-7.1.098-1.9.098-7.9.098-9.8V16z"/>
        <path fill="#7ED321" d="M13.921 11.6h19.746c.889 0 1.284-.4 1.284-1.3V7.9c0-1.9-.1-2.1-2.074-2-1.48 0-2.764-.3-3.85-1.3-.691-.7-1.185-1.5-1.679-2.4-.69-1.1-1.58-1.7-2.863-1.7H22.61c-1.086 0-1.974.5-2.468 1.5-.296.4-.494.9-.79 1.3-.691 1.3-1.876 2.1-3.258 2.4-.79.2-1.678.1-2.468.1S12.44 6.2 12.44 7v3.1c0 1.2.395 1.5 1.481 1.5zm.987-3.3c.494 0 1.086 0 1.679-.2 2.073-.4 3.85-1.7 4.936-3.6.099-.1.198-.3.296-.5.1-.2.297-.5.395-.7.198-.2.198-.3.494-.3h1.975c.197 0 .395 0 .69.5l.1.1c.493.9 1.085 1.9 1.974 2.8 1.284 1.3 3.06 2 5.134 2v.7H14.908v-.8z"/>
        <path fill="#FFF" d="M37.123 18.9c-.593-.9-1.58-1.5-2.666-1.7-.198 0-.494-.1-.691-.1a4.07 4.07 0 0 0-4.048 3.5c-.099.9 0 1.8.395 2.6-2.074 2.4-4.048 4.8-6.22 7.3v.1c-.296-.2-.691-.3-1.086-.3-.79-.1-1.58 0-2.271.3-1.086-1.2-2.27-2.4-3.258-3.5.197-.4.296-.8.395-1.2.197-1.1-.099-2.2-.691-3.1-.691-.9-1.58-1.5-2.666-1.7-.198 0-.494-.1-.691-.1a4.07 4.07 0 0 0-4.048 3.5c-.099.6-.099 1.2.099 1.8.197.5.394 1.1.79 1.5.592.8 1.48 1.3 2.468 1.5.79.1 1.678 0 2.468-.3.494.6 1.086 1.1 1.58 1.7l.098.1c.494.5.988 1.1 1.481 1.6-.197.4-.395.9-.493 1.4-.198 1.1 0 2.2.69 3.2.692.9 1.58 1.5 2.666 1.7.198 0 .494.1.692.1a4.07 4.07 0 0 0 4.048-3.5c.098-.9 0-1.8-.395-2.6 1.974-2.4 4.146-4.9 6.318-7.4.297.1.691.3.988.3.197 0 .493.1.69.1 1.284 0 2.568-.6 3.358-1.7.395-.5.592-1.1.69-1.7v-.1c.198-1.2 0-2.4-.69-3.3zM20.536 35.6c-.296-.4-.494-1-.395-1.5.099-.9.987-1.6 1.876-1.6h.296c1.086.2 1.777 1.1 1.58 2.2-.198 1.1-1.086 1.8-2.172 1.7-.395 0-.889-.3-1.185-.8zM35.74 21.7c-.197 1.1-1.086 1.8-2.172 1.7a2.19 2.19 0 0 1-1.283-.8c-.296-.4-.494-1-.395-1.5.099-.9.987-1.6 1.876-1.6h.296c1.086.2 1.777 1.1 1.678 2.2zM15.5 25.5c-.197 1.1-1.085 1.8-2.171 1.7a2.19 2.19 0 0 1-1.284-.8c-.296-.4-.494-1-.395-1.5.099-.9.987-1.6 1.876-1.6h.296c1.185.2 1.777 1.1 1.679 2.2zM8.392 44.5h7.207V47H8.392zM17.574 44.5h20.931V47H17.574zM8.392 51.3h19.746v2.5H8.392zM30.113 51.3h8.293v2.5h-8.293z"/>
    </g>
</svg>
