<svg xmlns="http://www.w3.org/2000/svg" width="90" height="79" viewBox="0 0 90 79">
    <g fill="none" fill-rule="evenodd">
        <path stroke="#4A4E49" d="M81.587 77.553H8.12c-4.089 0-7.434-3.345-7.434-7.434V8.022C.686 3.932 4.031.588 8.12.588h73.467c4.09 0 7.434 3.345 7.434 7.434v62.097c0 4.089-3.345 7.434-7.434 7.434z"/>
        <path fill="#4A4E49" d="M67.524 39.72l-.002-.036c0-.02-.003-.04-.004-.062l-.015-.253v-.01c-.003-.034-.004-.057-.007-.06-.109-1.477-.346-2.81-.722-4.068a16.916 16.916 0 0 0-.548-1.553c-.135-.33-.263-.615-.39-.87a1.58 1.58 0 0 1-.043-.092c-.09-.2-.216-.475-.504-.558a.573.573 0 0 0-.562.131.64.64 0 0 0-.183.6c.021.095.05.188.077.277l.036.121c.141.5.301 1.065.438 1.617a27.09 27.09 0 0 1 .708 4.1 21.377 21.377 0 0 1-.919 8.334c-.852 2.68-2.308 5.241-4.21 7.405a20.848 20.848 0 0 1-6.494 4.973 21.01 21.01 0 0 1-8.725 2.13 20.933 20.933 0 0 1-15.723-6.557 21.197 21.197 0 0 1-4.528-7.446c-.829-2.373-1.217-4.912-1.154-7.548.067-2.77.733-5.594 1.926-8.165a21.04 21.04 0 0 1 4.897-6.666c2.91-2.64 7.03-4.565 10.938-5.215a14.004 14.004 0 0 1 1.01-.123c.168-.014.341-.028.513-.074.48-.129.493-.469.935-1.55l.09-.224c.595-1.528 1.328-2.858 2.18-3.955.218-.28.451-.55.693-.803.064.056.131.117.195.18.223.217.44.48.662.802a9.462 9.462 0 0 1 1.12 2.25c.108.325.256.771.716.895.153.041.298.03.427.018l.096-.007a12.761 12.761 0 0 1 1.718.032c1.624.132 3.101.5 4.388 1.096.651.301 1.29.672 1.9 1.103.19.135.543.385.984.206a1.54 1.54 0 0 0 .372-.242l.09-.07a10.413 10.413 0 0 1 1.845-1.125c.362-.17.734-.304 1.103-.397a3.991 3.991 0 0 1 .517-.094c.038.324.058.682.065 1.12.02 1.418-.149 2.972-.513 4.75a22.442 22.442 0 0 1-1.337 4.345c-.665 1.55-1.416 2.738-2.295 3.634-.523.533-1.08.945-1.655 1.224a7.366 7.366 0 0 1-1.158.43c-1.424.42-2.988.486-4.524.193-1.115-.212-2.729-.687-4.087-1.738a1.718 1.718 0 0 1-.11-.095c-.187-.168-.576-.518-.973-.183a.542.542 0 0 0-.208.397c-.013.297.231.54.398.707.482.482 1.084.916 1.84 1.327a10.951 10.951 0 0 0 4.5 1.291c1.452.095 2.935-.129 4.41-.663 1.1-.399 2.125-1.129 3.044-2.17 1.77-2.003 3.004-4.719 3.775-8.302.364-1.689.54-3.297.52-4.779-.012-.937-.099-1.693-.273-2.377-.097-.38-.34-.595-.742-.654a3.957 3.957 0 0 0-1.078.012c-1.219.152-2.306.698-3.116 1.156a9.494 9.494 0 0 0-.739.465l-.113-.072-.063-.04a7.393 7.393 0 0 0-.332-.197l-.038-.02c-1.217-.698-2.664-1.227-4.3-1.575a18.553 18.553 0 0 0-3.5-.402 12.168 12.168 0 0 0-.124-.32c-.458-1.14-.992-2.04-1.633-2.753-.32-.356-.716-.754-1.228-1.006-.22-.109-.552-.272-.86-.162-.149.053-.258.16-.345.245-.02.02-.04.04-.06.057-.147.134-.293.273-.433.415-.99 1.004-1.849 2.238-2.622 3.773a19.898 19.898 0 0 0-.929 2.14c-.007.02-.016.051-.025.086l-.04.002c-.16.016-.32.033-.48.053-5.978.773-11.54 4.011-15.174 8.81a22.422 22.422 0 0 0-3.78 7.66c-.669 2.45-.93 5.031-.755 7.465.22 3.035.982 5.905 2.268 8.528a22.771 22.771 0 0 0 13.052 11.49 22.831 22.831 0 0 0 7.328 1.196c.555 0 1.11-.02 1.662-.06a22.73 22.73 0 0 0 8.753-2.48 22.752 22.752 0 0 0 10.96-12.638 22.992 22.992 0 0 0 1.226-8.733"/>
        <path fill="#4A4E49" d="M47.027 27.396a2.849 2.849 0 0 0 2.322.496c.276-.06.559-.162.8-.309.29-.177.61-.342.635-.725a.676.676 0 0 0-.33-.624c-.187-.11-.383-.092-.58-.025-.371.125-.738.242-1.136.222a1.965 1.965 0 0 1-.894-.29 3.411 3.411 0 0 1-.55-.416 3.643 3.643 0 0 1-.198-.194c-.055-.058-.1-.137-.16-.187-.457-.369-1.131.078-1.008.66.053.243.23.483.378.68.204.272.447.51.72.712M55.133 28.518a2.82 2.82 0 0 0 2.25 1.39c.398.025.813-.056 1.18-.213.261-.112.59-.262.79-.476a.666.666 0 0 0-.123-1.003c-.286-.19-.587-.113-.877.01-.314.137-.653.242-1 .196-.31-.042-.595-.194-.84-.382a2.807 2.807 0 0 1-.4-.371c-.104-.117-.314-.173-.484-.164a.655.655 0 0 0-.57.387c-.097.222-.038.425.074.626"/>
    </g>
</svg>
