<svg xmlns="http://www.w3.org/2000/svg" width="90" height="78" viewBox="0 0 90 78">
    <g fill="none" fill-rule="evenodd">
        <path fill="#00AB97" d="M81.624 77.22H8.157c-4.09 0-7.434-3.346-7.434-7.434V7.688C.723 3.6 4.068.255 8.157.255h73.467c4.089 0 7.434 3.344 7.434 7.434v62.096c0 4.09-3.345 7.434-7.434 7.434"/>
        <path fill="#FFFFFE" d="M68.607 39.698l-.002-.035-.004-.062-.015-.253-.001-.011c-.002-.033-.003-.056-.006-.06-.11-1.476-.346-2.81-.722-4.067a16.916 16.916 0 0 0-.548-1.553c-.135-.33-.263-.615-.39-.87a1.58 1.58 0 0 1-.043-.092c-.091-.201-.216-.475-.504-.558a.573.573 0 0 0-.562.13.64.64 0 0 0-.183.6c.02.096.049.189.077.278l.036.12c.14.5.3 1.066.438 1.618a27.09 27.09 0 0 1 .708 4.099 21.377 21.377 0 0 1-.92 8.335c-.851 2.68-2.307 5.24-4.21 7.405a20.848 20.848 0 0 1-6.493 4.973 21.01 21.01 0 0 1-8.725 2.129 20.933 20.933 0 0 1-15.723-6.557 21.197 21.197 0 0 1-4.528-7.445c-.83-2.373-1.217-4.912-1.154-7.548.067-2.77.733-5.594 1.926-8.165a21.04 21.04 0 0 1 4.897-6.666c2.91-2.641 7.03-4.565 10.938-5.215a14.004 14.004 0 0 1 1.01-.123c.168-.014.34-.028.513-.074.48-.13.493-.47.935-1.55l.089-.224c.596-1.528 1.329-2.858 2.18-3.955.219-.281.452-.551.694-.803.064.056.13.117.195.179.223.218.44.48.662.803a9.462 9.462 0 0 1 1.12 2.249c.108.326.256.772.716.896.153.04.298.029.427.018l.096-.007a12.761 12.761 0 0 1 1.718.032c1.624.132 3.1.5 4.388 1.096.65.3 1.29.672 1.899 1.103.19.135.544.385.985.206a1.54 1.54 0 0 0 .372-.242c.03-.024.06-.048.09-.07a10.413 10.413 0 0 1 1.845-1.125c.362-.17.734-.304 1.103-.397a3.991 3.991 0 0 1 .517-.094c.038.324.058.682.065 1.119.019 1.419-.15 2.973-.513 4.75a22.442 22.442 0 0 1-1.337 4.346c-.665 1.55-1.416 2.738-2.295 3.634-.523.533-1.08.945-1.655 1.224a7.366 7.366 0 0 1-1.158.43c-1.424.42-2.988.486-4.524.193-1.115-.212-2.73-.687-4.087-1.738a1.718 1.718 0 0 1-.11-.095c-.187-.168-.576-.518-.973-.183a.542.542 0 0 0-.208.397c-.013.297.23.54.398.707.482.482 1.084.916 1.839 1.327a10.951 10.951 0 0 0 4.5 1.29c1.453.096 2.936-.128 4.41-.662 1.1-.4 2.126-1.13 3.045-2.17 1.769-2.003 3.004-4.72 3.775-8.302.364-1.69.539-3.297.52-4.78-.012-.936-.1-1.692-.273-2.376-.097-.381-.34-.595-.742-.654a3.957 3.957 0 0 0-1.078.012c-1.22.152-2.306.698-3.116 1.156a9.494 9.494 0 0 0-.74.465l-.112-.072-.063-.04a7.393 7.393 0 0 0-.332-.197l-.038-.021c-1.217-.697-2.664-1.226-4.301-1.574a18.553 18.553 0 0 0-3.5-.402 9.45 9.45 0 0 0-.123-.321c-.458-1.14-.992-2.04-1.633-2.752-.32-.356-.716-.754-1.228-1.006-.22-.11-.552-.272-.861-.162-.148.053-.257.16-.344.245l-.06.057c-.147.134-.293.273-.433.415-.991 1.004-1.85 2.238-2.622 3.773a19.898 19.898 0 0 0-.93 2.14c-.006.02-.015.05-.024.086-.016 0-.03 0-.041.002-.16.016-.32.033-.48.053-5.977.773-11.54 4.01-15.173 8.809a22.422 22.422 0 0 0-3.78 7.66c-.67 2.45-.93 5.032-.755 7.466.219 3.035.982 5.905 2.268 8.528a22.771 22.771 0 0 0 13.052 11.489 22.831 22.831 0 0 0 7.328 1.197c.555 0 1.11-.02 1.662-.06a22.73 22.73 0 0 0 8.753-2.481A22.752 22.752 0 0 0 67.38 48.43a22.992 22.992 0 0 0 1.226-8.732"/>
        <path fill="#FFFFFE" d="M48.109 27.375a2.849 2.849 0 0 0 2.322.496c.276-.06.559-.162.8-.31.29-.176.61-.341.635-.724a.676.676 0 0 0-.33-.624c-.187-.11-.383-.092-.58-.025-.371.125-.738.242-1.136.222a1.965 1.965 0 0 1-.894-.291 3.411 3.411 0 0 1-.55-.415 4.053 4.053 0 0 1-.198-.194c-.055-.058-.1-.137-.16-.187-.457-.37-1.131.078-1.008.659.053.244.23.484.378.68.204.273.447.51.72.713M56.216 28.496a2.82 2.82 0 0 0 2.249 1.39c.399.025.814-.056 1.18-.213.262-.112.59-.262.79-.476a.666.666 0 0 0-.122-1.003c-.286-.19-.587-.113-.877.011-.314.136-.653.241-1 .195-.31-.042-.595-.194-.841-.382a2.807 2.807 0 0 1-.4-.37c-.103-.118-.313-.174-.483-.165a.655.655 0 0 0-.571.387c-.096.222-.037.425.075.626"/>
    </g>
</svg>
