<svg xmlns="http://www.w3.org/2000/svg" width="77" height="67" viewBox="0 0 77 67">
    <g fill="none" fill-rule="evenodd">
        <path fill="#4FB197" d="M70.404 66.907H6.826c-3.54 0-6.434-2.895-6.434-6.434V6.735C.392 3.196 3.287.301 6.826.301h63.578c3.538 0 6.434 2.895 6.434 6.434v53.738c0 3.54-2.896 6.434-6.434 6.434"/>
        <path fill="#FFF" d="M14.404 12.626c0-.55.446-.995.995-.995h23.436c.548 0 .995.446.995.995V55.96a.996.996 0 0 1-.995.995H15.399a.996.996 0 0 1-.995-.995V12.626zm39.543 2.32c1.355 0 2.882 1.006 2.907 2.447.025 1.416.01 4.857.004 6.398H41.377v-8.844h12.57zM50.22 27.772h3.759v-2.432h-3.76v2.432zm8.664 23.436c.83 0 2.07.276 2.83 1.054.466.477.683 1.066.666 1.802a78.964 78.964 0 0 0-.017 2.892h-21.19a2.52 2.52 0 0 0 .203-.995v-4.753h17.508zM44.842 43.91h14.82c-.19 1.057-.5 2.083-1.001 2.889-1.412 2.27-2.722 2.637-6.231 2.643-1.77 0-4.876-.777-5.865-1.85-.903-.98-1.427-2.323-1.723-3.682zm-.322-4.864h15.374c.04.735.078 1.975-.033 3.316H44.593a19.873 19.873 0 0 1-.073-3.316zm17.905 2.08c.382.109.65.585.813.979.46 1.637-1.124 2.907-2.45 3.656.453-1.434.628-3.028.678-4.384l.022-.013c.005-.004.504-.36.937-.238zm.57-20.204a.774.774 0 1 1 0 1.549.774.774 0 0 1 0-1.55zM15.4 58.503h23.436c.074 0 .147-.005.22-.012.037.006.073.012.11.012h23.99a.775.775 0 0 0 .773-.802c0-.014-.05-1.441 0-3.602.027-1.142-.355-2.151-1.106-2.92-1.095-1.121-2.752-1.52-3.937-1.52H58.2c.54-.421 1.05-.975 1.54-1.702.7-.255 6.146-2.378 4.97-6.325a.53.53 0 0 0-.023-.067c-.424-1.06-1.05-1.71-1.861-1.932a2.424 2.424 0 0 0-1.356.039 20.716 20.716 0 0 0-.09-1.481.775.775 0 0 0-.77-.692H43.81a.773.773 0 0 0-.768.676c-.035.284-.834 6.996 2.365 10.465.362.392.858.73 1.425 1.019h-5.454v-24.32h7.296v3.206c0 .427.347.773.774.773h5.306a.773.773 0 0 0 .774-.773v-3.206h2.1a.773.773 0 0 0 .774-.77c0-.021.006-.921.01-2.104h1.98c.14 0 .269-.04.382-.105a2.324 2.324 0 0 0 2.223 1.658 2.325 2.325 0 0 0 2.322-2.322 2.324 2.324 0 0 0-2.322-2.321 2.325 2.325 0 0 0-2.221 1.648.757.757 0 0 0-.384-.106h-1.976c.002-1.36 0-2.763-.014-3.551-.041-2.372-2.336-3.966-4.454-3.966h-12.57v-.774a2.545 2.545 0 0 0-2.542-2.543H15.399a2.546 2.546 0 0 0-2.543 2.543V55.96a2.546 2.546 0 0 0 2.543 2.543z"/>
        <path fill="#FFF" d="M30.486 45.13a2.474 2.474 0 0 1 2.47 2.47 2.474 2.474 0 0 1-2.47 2.471 2.474 2.474 0 0 1-2.471-2.47 2.473 2.473 0 0 1 2.47-2.472m0 6.49a4.023 4.023 0 0 0 4.019-4.019 4.023 4.023 0 0 0-4.018-4.019 4.024 4.024 0 0 0-4.02 4.02 4.024 4.024 0 0 0 4.02 4.018M30.433 33.85a.774.774 0 0 0 .774-.773V20.254a.774.774 0 1 0-1.548 0v12.823c0 .428.347.774.774.774"/>
    </g>
</svg>
