<svg xmlns="http://www.w3.org/2000/svg" width="79" height="69" viewBox="0 0 79 69">
    <g fill="none" fill-rule="evenodd">
        <path stroke="#3D3D3D" d="M71.404 67.795H7.826c-3.54 0-6.434-2.895-6.434-6.434V7.623c0-3.54 2.895-6.434 6.434-6.434h63.578c3.538 0 6.434 2.895 6.434 6.434V61.36c0 3.539-2.896 6.434-6.434 6.434z"/>
        <path fill="#3D3D3D" d="M15.404 13.513c0-.549.446-.995.995-.995h23.436c.548 0 .995.446.995.995v43.334a.996.996 0 0 1-.995.995H16.399a.996.996 0 0 1-.995-.995V13.513zm39.543 2.321c1.355 0 2.882 1.005 2.907 2.446.025 1.416.01 4.857.004 6.398H42.377v-8.844h12.57zM51.22 28.658h3.759v-2.432h-3.76v2.432zm8.664 23.436c.83 0 2.07.276 2.83 1.054.466.477.683 1.066.666 1.802a78.964 78.964 0 0 0-.017 2.892h-21.19a2.52 2.52 0 0 0 .203-.995v-4.753h17.508zm-14.043-7.296h14.82c-.19 1.057-.5 2.083-1.001 2.89-1.412 2.27-2.722 2.636-6.231 2.642-1.77 0-4.876-.777-5.865-1.849-.903-.98-1.427-2.324-1.723-3.683zm-.322-4.864h15.374c.04.735.078 1.975-.033 3.316H45.593a19.873 19.873 0 0 1-.073-3.316zm17.905 2.08c.382.11.65.585.813.98.46 1.636-1.124 2.906-2.45 3.655.453-1.434.628-3.028.678-4.384l.022-.013c.005-.004.504-.36.937-.238zm.57-20.204a.774.774 0 1 1 0 1.55.774.774 0 0 1 0-1.55zM16.4 59.39h23.436c.074 0 .147-.005.22-.012.037.006.073.012.11.012h23.99a.775.775 0 0 0 .773-.802c0-.014-.05-1.44 0-3.602.027-1.142-.355-2.15-1.106-2.919-1.095-1.122-2.752-1.52-3.937-1.52H59.2c.54-.422 1.05-.976 1.54-1.703.7-.255 6.146-2.378 4.97-6.325a.53.53 0 0 0-.023-.067c-.424-1.06-1.05-1.71-1.861-1.932a2.424 2.424 0 0 0-1.356.04 20.716 20.716 0 0 0-.09-1.482.775.775 0 0 0-.77-.692H44.81a.773.773 0 0 0-.768.676c-.035.284-.834 6.996 2.365 10.465.362.392.858.73 1.425 1.02h-5.454v-24.32h7.296v3.205c0 .427.347.773.774.773h5.306a.773.773 0 0 0 .774-.773v-3.206h2.1a.773.773 0 0 0 .774-.769c0-.022.006-.922.01-2.105h1.98c.14 0 .269-.04.382-.105a2.324 2.324 0 0 0 2.223 1.658 2.325 2.325 0 0 0 2.322-2.322 2.324 2.324 0 0 0-2.322-2.32 2.325 2.325 0 0 0-2.221 1.647.757.757 0 0 0-.384-.106h-1.976c.002-1.36 0-2.763-.014-3.55-.041-2.373-2.336-3.967-4.454-3.967h-12.57v-.774a2.545 2.545 0 0 0-2.542-2.543H16.399a2.546 2.546 0 0 0-2.543 2.543v43.334a2.546 2.546 0 0 0 2.543 2.543z"/>
        <path fill="#3D3D3D" d="M31.486 46.017a2.474 2.474 0 0 1 2.47 2.47 2.474 2.474 0 0 1-2.47 2.472 2.474 2.474 0 0 1-2.471-2.471 2.473 2.473 0 0 1 2.47-2.471m0 6.49a4.023 4.023 0 0 0 4.019-4.02 4.023 4.023 0 0 0-4.018-4.018 4.024 4.024 0 0 0-4.02 4.019 4.024 4.024 0 0 0 4.02 4.019M31.433 34.738a.774.774 0 0 0 .774-.774V21.141a.774.774 0 1 0-1.548 0v12.823c0 .428.347.774.774.774"/>
    </g>
</svg>
