<svg xmlns="http://www.w3.org/2000/svg" width="77" height="68" viewBox="0 0 77 68">
    <g fill="none" fill-rule="evenodd">
        <path fill="#4FB197" d="M70.07 67.488H6.492c-3.539 0-6.434-2.895-6.434-6.434V7.316c0-3.54 2.895-6.434 6.434-6.434H70.07c3.538 0 6.433 2.895 6.433 6.434v53.738c0 3.539-2.895 6.434-6.433 6.434"/>
        <path fill="#FFF" d="M50.272 17.077a.703.703 0 1 1 0-1.407.703.703 0 0 1 0 1.407m0-2.704c-1.103 0-2 .898-2 2 0 1.104.897 2 2 2s2-.896 2-2a2.003 2.003 0 0 0-2-2"/>
        <path fill="#FFF" d="M52.974 55.68H23.106c-.86 0-1.558-.698-1.558-1.558v-6.04h32.984v6.04c0 .86-.697 1.558-1.558 1.558zM21.548 14.247c0-.86.698-1.558 1.558-1.558h29.868c.861 0 1.558.698 1.558 1.558v5.67H21.548v-5.67zm0 32.538h32.984V21.213H21.548v25.572zm34.282.32V14.247a2.856 2.856 0 0 0-2.856-2.855H23.106a2.855 2.855 0 0 0-2.855 2.855v39.875a2.855 2.855 0 0 0 2.855 2.855h29.868a2.856 2.856 0 0 0 2.856-2.855v-6.359c0-.097.092-.208.092-.329 0-.12-.092-.232-.092-.329z"/>
        <path fill="#FFF" d="M50.641 43.074c0 .003-.014.006-.03.006H25.284c-.016 0-.03-.003-.03-.006V28.26c0-.003.014-.006.03-.006h25.327c.016 0 .03.003.03.006v14.813zm1.297-14.84c0-.704-.594-1.276-1.327-1.276H25.284c-.733 0-1.327.572-1.327 1.276V43.1c0 .705.594 1.276 1.327 1.276h25.327c.733 0 1.327-.571 1.327-1.276V28.234zM25.625 24.734h25.016a.649.649 0 1 0 0-1.297H25.625a.649.649 0 1 0 0 1.297M44.67 17.077a.703.703 0 1 1 0-1.407.703.703 0 0 1 0 1.407m0-2.704c-1.103 0-2 .898-2 2 0 1.104.897 2 2 2s2-.896 2-2a2.003 2.003 0 0 0-2-2M39.067 17.077a.703.703 0 1 1 .001-1.407.703.703 0 0 1 0 1.407m0-2.704c-1.104 0-2 .898-2 2 0 1.104.896 2 2 2 1.102 0 2-.896 2-2a2.003 2.003 0 0 0-2-2M33.805 16.907a.703.703 0 1 1 0-1.407.703.703 0 0 1 0 1.407m0-2.704c-1.103 0-2 .898-2 2.001 0 1.103.897 2 2 2s2-.897 2-2a2.003 2.003 0 0 0-2-2.001"/>
    </g>
</svg>
