<svg xmlns="http://www.w3.org/2000/svg" width="79" height="68" viewBox="0 0 79 68">
    <g fill="none" fill-rule="evenodd">
        <path stroke="#3D3D3D" d="M71.07 67.375H7.492c-3.539 0-6.434-2.895-6.434-6.434V7.203C1.058 3.664 3.953.77 7.492.77H71.07c3.538 0 6.433 2.895 6.433 6.434v53.738c0 3.54-2.895 6.434-6.433 6.434z"/>
        <path fill="#3D3D3D" d="M51.272 16.964a.703.703 0 1 1 0-1.407.703.703 0 0 1 0 1.407m0-2.704c-1.103 0-2 .898-2 2.001 0 1.103.897 2 2 2s2-.897 2-2a2.003 2.003 0 0 0-2-2"/>
        <path fill="#3D3D3D" d="M53.974 55.568H24.106c-.86 0-1.558-.698-1.558-1.558v-6.04h32.984v6.04c0 .86-.697 1.558-1.558 1.558zM22.548 14.135c0-.86.698-1.558 1.558-1.558h29.868c.861 0 1.558.698 1.558 1.558v5.669H22.548v-5.67zm0 32.538h32.984V21.1H22.548v25.572zm34.282.32V14.135a2.856 2.856 0 0 0-2.856-2.855H24.106a2.855 2.855 0 0 0-2.855 2.855V54.01a2.855 2.855 0 0 0 2.855 2.855h29.868a2.856 2.856 0 0 0 2.856-2.855v-6.36c0-.096.092-.207.092-.328 0-.121-.092-.232-.092-.33z"/>
        <path fill="#3D3D3D" d="M51.641 42.961c0 .003-.014.006-.03.006H26.284c-.016 0-.03-.003-.03-.006V28.148c0-.003.014-.006.03-.006h25.327c.016 0 .03.003.03.006v14.813zm1.297-14.84c0-.704-.594-1.276-1.327-1.276H26.284c-.733 0-1.327.572-1.327 1.276v14.867c0 .705.594 1.276 1.327 1.276h25.327c.733 0 1.327-.57 1.327-1.276V28.121zM26.625 24.622h25.016a.649.649 0 1 0 0-1.297H26.625a.649.649 0 1 0 0 1.297M45.67 16.964a.703.703 0 1 1 0-1.407.703.703 0 0 1 0 1.407m0-2.704c-1.103 0-2 .898-2 2.001 0 1.103.897 2 2 2s2-.897 2-2a2.003 2.003 0 0 0-2-2M40.067 16.964a.703.703 0 1 1 .001-1.407.703.703 0 0 1 0 1.407m0-2.704c-1.104 0-2 .898-2 2.001 0 1.103.896 2 2 2 1.102 0 2-.897 2-2a2.003 2.003 0 0 0-2-2M34.805 16.794a.703.703 0 1 1 0-1.406.703.703 0 0 1 0 1.406m0-2.704c-1.103 0-2 .898-2 2.001 0 1.103.897 2 2 2s2-.897 2-2a2.003 2.003 0 0 0-2-2"/>
    </g>
</svg>
