<svg xmlns="http://www.w3.org/2000/svg" width="77" height="67" viewBox="0 0 77 67">
    <g fill="none" fill-rule="evenodd">
        <path fill="#4FB197" d="M70.167 66.907H6.59c-3.539 0-6.434-2.895-6.434-6.434V6.735C.155 3.196 3.05.301 6.59.301h63.578c3.538 0 6.434 2.895 6.434 6.434v53.738c0 3.54-2.896 6.434-6.434 6.434"/>
        <path fill="#FFF" d="M31.805 22.844H29.14a.723.723 0 1 0 0 1.447h2.664a.723.723 0 1 0 0-1.447"/>
        <path fill="#FFF" d="M56.35 19.663a2.673 2.673 0 0 1-1.51 1.735l-2.437 1.065v-1.97c0-3.258-1.782-6.102-4.418-7.628 2.565-.426 5.218.603 6.775 2.82l1.202 1.71c.465.662.607 1.488.389 2.268zM46.046 42.002h-3.176a4.096 4.096 0 0 1-4.092-4.091v-3.233l3.397-2.652a2.67 2.67 0 0 0 1.012-2.45 2.57 2.57 0 0 0-1.511-2.058c-1.011-.45-2.23-.678-3.621-.678s-2.61.228-3.622.679a2.567 2.567 0 0 0-1.51 2.057 2.667 2.667 0 0 0 1.013 2.45l3.396 2.652v3.233A4.096 4.096 0 0 1 33.239 42h-3.176a4.917 4.917 0 0 1-4.911-4.911V20.494c0-4.063 3.306-7.37 7.37-7.37h11.064c4.064 0 7.37 3.307 7.37 7.37V37.09a4.917 4.917 0 0 1-4.911 4.912zm-7.991-13.715c1.187 0 2.208.186 3.034.553.37.165.61.497.662.912.054.44-.12.864-.466 1.134l-3.23 2.52-3.23-2.52a1.235 1.235 0 0 1-.466-1.134c.05-.414.292-.747.662-.912.826-.367 1.847-.553 3.034-.553zm10.838 23.356l.559.966c.204.352.204.772 0 1.124a1.108 1.108 0 0 1-.973.562 2.89 2.89 0 0 1-2.888-2.888V48.27c0-.4-.324-.723-.723-.723H31.24a.723.723 0 0 0-.723.723v3.136a2.89 2.89 0 0 1-2.887 2.888 1.11 1.11 0 0 1-.974-.562 1.113 1.113 0 0 1 0-1.124l.559-.966a.72.72 0 0 0 .097-.362v-8.484a6.28 6.28 0 0 0 2.75.65h3.176c2.076 0 3.867-1.16 4.815-2.854.948 1.694 2.739 2.855 4.815 2.855h3.176a6.28 6.28 0 0 0 2.75-.651v8.484a.73.73 0 0 0 .097.362zM21.268 21.398a2.674 2.674 0 0 1-1.511-1.736 2.675 2.675 0 0 1 .389-2.267l1.202-1.71c1.558-2.215 4.21-3.244 6.775-2.82-2.636 1.526-4.418 4.37-4.418 7.629v1.969l-2.437-1.065zm35.878-4.835l-1.202-1.71c-2.274-3.235-6.476-4.4-10.093-2.87a8.774 8.774 0 0 0-2.265-.305H32.522c-.784 0-1.541.113-2.265.306-3.616-1.533-7.82-.366-10.092 2.87l-1.203 1.709a4.117 4.117 0 0 0-.598 3.489 4.113 4.113 0 0 0 2.325 2.672l3.016 1.317V37.09c0 1.892.847 3.574 2.162 4.739v9.258l-.462.798a2.545 2.545 0 0 0-.001 2.572 2.545 2.545 0 0 0 2.227 1.285 4.34 4.34 0 0 0 4.334-4.335v-2.413h12.178v2.413a4.34 4.34 0 0 0 4.335 4.335c.93 0 1.762-.48 2.227-1.285a2.545 2.545 0 0 0-.002-2.572l-.462-.798v-9.258c1.315-1.165 2.162-2.847 2.162-4.74V24.042l3.016-1.317a4.113 4.113 0 0 0 2.325-2.671 4.115 4.115 0 0 0-.598-3.49z"/>
        <path fill="#FFF" d="M46.967 22.844h-2.664a.723.723 0 1 0 0 1.447h2.664a.723.723 0 1 0 0-1.447"/>
    </g>
</svg>
