<svg xmlns="http://www.w3.org/2000/svg" width="79" height="69" viewBox="0 0 79 69">
    <g fill="none" fill-rule="evenodd">
        <path stroke="#3D3D3D" d="M71.167 67.795H7.59c-3.539 0-6.434-2.895-6.434-6.434V7.623c0-3.54 2.895-6.434 6.434-6.434h63.578c3.538 0 6.434 2.895 6.434 6.434V61.36c0 3.539-2.896 6.434-6.434 6.434z"/>
        <path fill="#3D3D3D" d="M32.805 23.731H30.14a.723.723 0 1 0 0 1.447h2.664a.723.723 0 1 0 0-1.447"/>
        <path fill="#3D3D3D" d="M57.35 20.55a2.673 2.673 0 0 1-1.51 1.735l-2.437 1.065v-1.969c0-3.259-1.782-6.103-4.418-7.629 2.565-.426 5.218.603 6.775 2.821l1.202 1.709c.465.662.607 1.488.389 2.268zM47.046 42.889h-3.176a4.096 4.096 0 0 1-4.092-4.091v-3.233l3.397-2.652a2.67 2.67 0 0 0 1.012-2.45 2.57 2.57 0 0 0-1.511-2.058c-1.011-.45-2.23-.678-3.621-.678s-2.61.228-3.622.679a2.567 2.567 0 0 0-1.51 2.057 2.667 2.667 0 0 0 1.013 2.45l3.396 2.652v3.233a4.096 4.096 0 0 1-4.092 4.091h-3.176a4.917 4.917 0 0 1-4.911-4.912V21.381c0-4.063 3.306-7.37 7.37-7.37h11.064c4.064 0 7.37 3.307 7.37 7.37v16.596a4.917 4.917 0 0 1-4.911 4.912zm-7.991-13.715c1.187 0 2.208.186 3.034.553.37.165.61.497.662.912.054.44-.12.864-.466 1.134l-3.23 2.521-3.23-2.521a1.235 1.235 0 0 1-.466-1.134c.05-.414.292-.747.662-.912.826-.367 1.847-.553 3.034-.553zM49.892 52.53l.559.966c.204.352.204.772 0 1.124a1.108 1.108 0 0 1-.973.562 2.89 2.89 0 0 1-2.888-2.888v-3.136c0-.4-.324-.723-.723-.723H32.24a.723.723 0 0 0-.723.723v3.136a2.89 2.89 0 0 1-2.887 2.888 1.11 1.11 0 0 1-.974-.562 1.113 1.113 0 0 1 0-1.124l.559-.966a.72.72 0 0 0 .097-.362v-8.484a6.28 6.28 0 0 0 2.75.651h3.176c2.076 0 3.867-1.161 4.815-2.855.948 1.694 2.739 2.855 4.815 2.855h3.176a6.28 6.28 0 0 0 2.75-.651v8.484a.73.73 0 0 0 .097.362zM22.268 22.285a2.674 2.674 0 0 1-1.511-1.736 2.675 2.675 0 0 1 .389-2.267l1.202-1.709c1.558-2.216 4.21-3.245 6.775-2.821-2.636 1.526-4.418 4.371-4.418 7.629v1.969l-2.437-1.065zm35.878-4.835l-1.202-1.709c-2.274-3.236-6.476-4.401-10.093-2.87a8.774 8.774 0 0 0-2.265-.306H33.522c-.784 0-1.541.113-2.265.306-3.616-1.533-7.82-.366-10.092 2.87l-1.203 1.709a4.117 4.117 0 0 0-.598 3.489 4.113 4.113 0 0 0 2.325 2.672l3.016 1.317v13.049c0 1.892.847 3.574 2.162 4.739v9.258l-.462.798a2.545 2.545 0 0 0-.001 2.572 2.545 2.545 0 0 0 2.227 1.285 4.34 4.34 0 0 0 4.334-4.335v-2.413h12.178v2.413a4.34 4.34 0 0 0 4.335 4.335c.93 0 1.762-.48 2.227-1.285a2.545 2.545 0 0 0-.002-2.572l-.462-.798v-9.258c1.315-1.165 2.162-2.847 2.162-4.739V24.928l3.016-1.317a4.113 4.113 0 0 0 2.325-2.671 4.115 4.115 0 0 0-.598-3.49z"/>
        <path fill="#3D3D3D" d="M47.967 23.731h-2.664a.723.723 0 1 0 0 1.447h2.664a.723.723 0 1 0 0-1.447"/>
    </g>
</svg>
