<svg xmlns="http://www.w3.org/2000/svg" width="49" height="49" viewBox="0 0 49 49">
    <g fill="#FFF" fill-rule="evenodd">
        <path d="M44.976 0H3.928A3.936 3.936 0 0 0 0 3.935v41.14A3.934 3.934 0 0 0 3.928 49h41.058a3.936 3.936 0 0 0 3.927-3.935V3.935C48.903 1.765 47.142 0 44.976 0zM23.263 46.64H3.779c-.675 0-1.223-.55-1.223-1.226V3.595c0-.676.548-1.225 1.223-1.225h19.484v44.27zm21.873-.005H25.638V2.355h19.488c.676 0 1.224.55 1.224 1.226V45.41a1.21 1.21 0 0 1-1.214 1.226z"/>
        <path d="M11.947 31.782c.27.27.616.396.962.396.347 0 .694-.135.963-.396l4.294-4.301a1.37 1.37 0 0 0 0-1.93 1.364 1.364 0 0 0-1.926 0l-1.973 1.978v-9.347a1.357 1.357 0 1 0-2.715 0v9.347L9.58 25.56a1.364 1.364 0 0 0-1.926 0 1.37 1.37 0 0 0 0 1.93l4.294 4.291zM36.957 17.218a1.345 1.345 0 0 0-.963-.396c-.346 0-.693.135-.962.396l-4.294 4.301a1.37 1.37 0 0 0 0 1.93c.53.53 1.386.53 1.925 0l1.974-1.978v9.347a1.357 1.357 0 1 0 2.715 0V21.47l1.973 1.978c.53.53 1.386.53 1.925 0a1.37 1.37 0 0 0 0-1.93l-4.293-4.301z"/>
    </g>
</svg>
