<svg xmlns="http://www.w3.org/2000/svg" width="77" height="67" viewBox="0 0 77 67">
    <g fill="none" fill-rule="evenodd">
        <path fill="#4FB197" d="M70.3 66.907H6.722c-3.539 0-6.434-2.895-6.434-6.434V6.735C.288 3.196 3.183.301 6.722.301H70.3c3.538 0 6.434 2.895 6.434 6.434v53.738c0 3.54-2.896 6.434-6.434 6.434"/>
        <path fill="#FFF" d="M48.113 50.325H19.137v3.368H58.55v-3.368H48.113zm-12.887-1.466c-.723-.83-1.253-1.81-1.606-2.817-.707-2.015-.707-4.181-.144-5.466a.731.731 0 0 1 1.26-.141l.885 1.146c.166-.865.491-1.702.844-2.611.522-1.344 1.114-2.865 1.267-4.877a.733.733 0 0 1 1.18-.524c1.035.805 2.204 1.841 2.945 3.48.58 1.282.88 2.909.616 5.039l.974-.689a.728.728 0 0 1 1.143.49l.002-.001c.175 1.173-.257 2.896-.918 4.468a14.2 14.2 0 0 1-1.347 2.503h5.053V30.121H30.308v18.738h4.918zM58.55 17.838H19.137v3.369H58.55v-3.369zM28.842 48.859V29.388c0-.405.328-.733.733-.733h18.538c.405 0 .733.328.733.733v19.471h6.338V22.673h-32.68v26.186h6.338zm-7.805 0V22.673h-2.633a.733.733 0 0 1-.733-.733v-4.835c0-.405.328-.733.733-.733h40.88c.404 0 .732.328.732.733v4.835a.733.733 0 0 1-.733.733H56.65v26.186h2.633c.405 0 .733.328.733.733v4.835a.733.733 0 0 1-.733.732H18.404a.733.733 0 0 1-.733-.732v-4.835c0-.405.328-.733.733-.733h2.633zm16.376 0h3.028c.577-.475 1.314-1.707 1.887-3.07.333-.792.601-1.611.74-2.335l-1.179.835a.731.731 0 0 1-1.17-.74c.648-2.678.417-4.54-.197-5.898-.383-.848-.927-1.515-1.502-2.067-.272 1.546-.754 2.788-1.192 3.913-.558 1.436-1.035 2.664-.79 4.033a.73.73 0 0 1-1.294.599l-1.215-1.571c-.043.895.105 1.961.471 3.003.453 1.292 1.242 2.522 2.413 3.298z"/>
    </g>
</svg>
