<svg xmlns="http://www.w3.org/2000/svg" width="79" height="69" viewBox="0 0 79 69">
    <g fill="none" fill-rule="evenodd">
        <path stroke="#3D3D3D" d="M71.3 67.795H7.722c-3.539 0-6.434-2.895-6.434-6.434V7.623c0-3.54 2.895-6.434 6.434-6.434H71.3c3.538 0 6.434 2.895 6.434 6.434V61.36c0 3.539-2.896 6.434-6.434 6.434z"/>
        <path fill="#3D3D3D" d="M49.113 51.212H20.137v3.368H59.55v-3.368H49.113zm-12.887-1.466c-.723-.83-1.253-1.81-1.606-2.817-.707-2.015-.707-4.18-.144-5.466a.731.731 0 0 1 1.26-.14l.885 1.145c.166-.865.491-1.702.844-2.61.522-1.345 1.114-2.866 1.267-4.878a.733.733 0 0 1 1.18-.524c1.035.805 2.204 1.841 2.945 3.48.58 1.282.88 2.91.616 5.04l.974-.69a.728.728 0 0 1 1.143.49h.002c.175 1.172-.257 2.895-.918 4.467a14.2 14.2 0 0 1-1.347 2.503h5.053V31.008H31.308v18.738h4.918zm23.324-31.02H20.137v3.368H59.55v-3.369zm-29.708 31.02v-19.47c0-.406.328-.734.733-.734h18.538c.405 0 .733.328.733.733v19.471h6.338V23.56h-32.68v26.186h6.338zm-7.805 0V23.56h-2.633a.733.733 0 0 1-.733-.733v-4.835c0-.405.328-.733.733-.733h40.88c.404 0 .732.328.732.733v4.835a.733.733 0 0 1-.733.733H57.65v26.186h2.633c.405 0 .733.328.733.733v4.835a.733.733 0 0 1-.733.732H19.404a.733.733 0 0 1-.733-.732V50.48c0-.405.328-.733.733-.733h2.633zm16.376 0h3.028c.577-.475 1.314-1.707 1.887-3.07.333-.792.601-1.61.74-2.335l-1.179.835a.731.731 0 0 1-1.17-.74c.648-2.678.417-4.54-.197-5.898-.383-.848-.927-1.515-1.502-2.067-.272 1.546-.754 2.788-1.192 3.913-.558 1.436-1.035 2.664-.79 4.033a.73.73 0 0 1-1.294.6l-1.215-1.572c-.043.895.105 1.961.471 3.003.453 1.292 1.242 2.522 2.413 3.298z"/>
    </g>
</svg>
