<svg xmlns="http://www.w3.org/2000/svg" width="63" height="48" viewBox="0 0 63 48">
    <g fill="#FFF" fill-rule="evenodd">
        <path d="M8.616 36.533L8.88 37.8c.132.6.663 1.067 1.259 1.067h30.751c.597 0 1.127-.467 1.26-1.067l.265-1.267c-15.84-2.933-30.818-.533-33.8 0z"/>
        <path d="M7.489 30.467l.928 4.8c3.048-.534 18.225-3 34.264 0l.928-4.8c.265-1.467 1.259-2.6 2.518-3.2A6.089 6.089 0 0 0 40.03 21.4H11.2c-3.313 0-5.964 2.667-6.097 5.933 1.193.6 2.12 1.734 2.386 3.134z"/>
        <path d="M50.435 29.2c-.332-.533-.862-.8-1.525-.933l-.53-.067c-1.657-.267-3.18.867-3.512 2.467L43.476 38c-.265 1.267-1.326 2.133-2.585 2.133H10.14c-1.26 0-2.32-.866-2.585-2.133l-1.391-7.333c-.332-1.6-1.856-2.734-3.513-2.467l-.53.067c-.597.066-1.127.4-1.525.933C.2 29.733.133 30.333.2 30.933.398 32 1.392 32.8 2.452 32.733h.066c.332 0 .597.267.663.6l1.127 10.2c.066.734.729 1.334 1.458 1.334h2.32l.198 1.866c.067.4.398.667.796.667h1.524a.789.789 0 0 0 .795-.667l.199-1.866h27.636l.2 1.866c.066.4.397.667.795.667h1.524a.789.789 0 0 0 .795-.667l.199-1.866h2.32c.729 0 1.391-.6 1.458-1.334l1.193-10.2c.066-.333.33-.6.662-.6h.067c1.126.067 2.054-.733 2.253-1.8.199-.6.066-1.2-.265-1.733z"/>
        <path d="M61.701 9.133L46.856.6c-.265-.2-.663-.067-.862.2l-1.59 2.267c-2.121-1.134-4.904-.534-6.76 1.466-.265.267-.199.667.066.934L45 11c.265.2.73.133.862-.2 1.458-2.333 1.26-5.267-.464-6.933l1.26-1.8L53.55 6v37.867c-2.784.066-4.97.466-4.97 1V46.2c0 .533 2.518 1 5.632 1 3.115 0 5.634-.467 5.634-1v-1.333c0-.534-2.187-.934-4.97-1V6.8l6.229 3.533c.132.067.199.067.331.067a.79.79 0 0 0 .597-.333.769.769 0 0 0-.332-.934z"/>
        <path d="M39.897 10.2c.862.667 2.055.467 2.717-.4l-3.048-2.333c-.663.866-.53 2.066.331 2.733z"/>
    </g>
</svg>
