<svg xmlns="http://www.w3.org/2000/svg" width="52" height="26" viewBox="0 0 52 26">
    <g fill="#FFF" fill-rule="evenodd">
        <path d="M10.313 0C8.49 0 7 1.519 7 3.375v18.9c0 1.856 1.49 3.375 3.313 3.375 1.821 0 3.312-1.519 3.312-3.375V3.206C13.625 1.52 12.135 0 10.312 0zM2.319 3C.994 3 0 4.013 0 5.362v14.85c0 1.35.994 2.363 2.319 2.363s2.319-1.012 2.319-2.363V5.362C4.638 4.013 3.644 3 2.318 3zM17 11h17.556v2.7H17zM40.313 0C38.49 0 37 1.519 37 3.375v19.069c0 1.856 1.49 3.375 3.313 3.375 1.821 0 3.312-1.519 3.312-3.375v-18.9c0-2.025-1.49-3.544-3.313-3.544zM49.319 3C47.994 3 47 4.013 47 5.362v14.85c0 1.35.994 2.363 2.319 2.363s2.319-1.012 2.319-2.363V5.362c0-1.35-.994-2.362-2.32-2.362z"/>
    </g>
</svg>
