<svg xmlns="http://www.w3.org/2000/svg" width="43" height="43" viewBox="0 0 43 43">
    <path fill="#FFF" fill-rule="evenodd" d="M42.184.218H.708C.38.218.163.435.163.762v41.476c0 .327.218.544.545.544h41.476c.326 0 .544-.217.544-.544V.762c0-.327-.218-.544-.544-.544zM21.718 1.306h9.035l-9.035 9.036V1.306zm9.96.6l9.254 9.252-9.254 9.253-9.253-9.253 9.253-9.253zm-9.96 10.069l8.98 8.98h-8.98v-8.98zm0 10.07h9.09l-9.09 9.09v-9.09zM1.252 1.305h8.818l-8.818 8.818V1.306zm9.689.6l9.253 9.252-9.253 9.253-9.254-9.253 9.254-9.253zm-9.69 10.34l8.71 8.71H1.25v-8.71zm0 9.798h8.819l-8.818 8.818v-8.818zm0 19.65v-8.71l8.71 8.71H1.25zm.436-9.743l9.254-9.254 9.253 9.254-9.253 9.253-9.254-9.253zm18.942 9.743h-8.654l8.654-8.655v8.655zm0-10.886l-8.763-8.764h8.763v8.764zm0-9.852h-8.654l8.654-8.655v8.655zm0-10.94l-8.709-8.71h8.71v8.71zm1.089 31.678v-8.927l8.926 8.927h-8.926zm.707-9.743l9.253-9.254 9.254 9.254-9.254 9.253-9.253-9.253zm19.214 9.743h-8.926l8.98-8.981v8.98h-.054zm0-10.56l-9.09-9.09h9.09v9.09zm0-10.178h-8.98l8.98-8.981v8.98zm0-10.614l-9.035-9.036h9.035v9.036z"/>
</svg>
