<svg xmlns="http://www.w3.org/2000/svg" width="105" height="105" viewBox="0 0 105 105">
    <g fill="none" fill-rule="evenodd" transform="translate(2 2)">
        <circle cx="50.297" cy="50.297" r="51.297" stroke="#000" stroke-width="2"/>
        <g stroke="#4A4A4A">
            <path d="M21.5 20.5h59v59h-59z"/>
            <path d="M21.5 21.5h42.2v12H21.5zM26.3 34.5h41.4v12H26.3z"/>
            <path d="M26.3 34.5h41.4v12H26.3zM21.5 34.5h3.8v12h-3.8zM21.5 47.5h42.2v12H21.5zM26.3 60.5h41.4v12H26.3zM68.7 60.5h11.8v12H68.7zM64.7 73.5h15.8v6H64.7zM21.5 73.5h42.2v6H21.5zM64.7 47.5h15.8v12H64.7zM68.7 34.5h11.8v12H68.7zM64.7 20.5h15.8v13H64.7zM21.5 60.5h3.8v12h-3.8z"/>
        </g>
    </g>
</svg>
