<svg xmlns="http://www.w3.org/2000/svg" width="90" height="79" viewBox="0 0 90 79">
    <g fill="none" fill-rule="evenodd">
        <path stroke="#4A4E49" d="M82 77.553H8.533c-4.089 0-7.434-3.345-7.434-7.434V8.022c0-4.09 3.345-7.434 7.434-7.434H82c4.089 0 7.434 3.345 7.434 7.434v62.097c0 4.089-3.345 7.434-7.434 7.434z"/>
        <path fill="#4A4E49" d="M47.91 59.194H21.08a4.168 4.168 0 0 1-4.163-4.163V15.826h1.093v39.205a3.075 3.075 0 0 0 3.07 3.07h26.83v1.093zM53.996 45.555h1.093V15.826h-1.093zM55.09 15.826h-1.094v-.798a1.848 1.848 0 0 0-1.845-1.845H19.856a1.847 1.847 0 0 0-1.845 1.845v.798h-1.094v-.798a2.942 2.942 0 0 1 2.94-2.938H52.15a2.941 2.941 0 0 1 2.938 2.938v.798z"/>
        <path fill="#4A4E49" d="M55.09 24.96H16.916v-9.68h5.52v1.093h-4.426v7.494h35.985v-7.494H40.067V15.28H55.09z"/>
        <path fill="#4A4E49" d="M46.894 18.787c-.693 0-1.257.564-1.257 1.257s.564 1.257 1.257 1.257 1.257-.564 1.257-1.257-.564-1.257-1.257-1.257m0 3.608a2.354 2.354 0 0 1-2.351-2.351 2.353 2.353 0 0 1 2.351-2.35 2.352 2.352 0 0 1 2.35 2.35 2.353 2.353 0 0 1-2.35 2.35M36.004 29.532c-5.582 0-10.123 4.54-10.123 10.122 0 5.581 4.54 10.121 10.123 10.121 5.58 0 10.12-4.54 10.12-10.121 0-5.582-4.54-10.122-10.12-10.122m0 21.336c-6.185 0-11.216-5.03-11.216-11.215 0-6.182 5.03-11.213 11.216-11.213 6.184 0 11.214 5.03 11.214 11.213 0 6.184-5.03 11.215-11.214 11.215"/>
        <path fill="#4A4E49" d="M36.003 47.474c-4.311 0-7.818-3.508-7.818-7.82s3.507-7.819 7.818-7.819v1.093a6.733 6.733 0 0 0-6.725 6.726c0 3.71 3.017 6.727 6.725 6.727a6.734 6.734 0 0 0 6.726-6.727h1.093c0 4.312-3.507 7.82-7.82 7.82M29.61 22.395h-1.093v-3.06h-6.365v3.06h-1.094v-4.154h8.552zM47.36 51.494l1.238 8.025a3.053 3.053 0 0 0 3.034 2.6H63.51a3.052 3.052 0 0 0 3.034-2.6l1.238-8.025H47.36zm16.15 11.72H51.633a4.14 4.14 0 0 1-4.114-3.53l-1.433-9.283h22.973l-1.433 9.284a4.14 4.14 0 0 1-4.114 3.529z"/>
        <path fill="#4A4E49" d="M43.841 51.494h27.461v-1.093H43.841z"/>
        <path fill="#4A4E49" d="M47.61 51.495a5.19 5.19 0 0 1-.349-1.835 5.223 5.223 0 0 1 5.218-5.217 5.05 5.05 0 0 1 2.021.428 5.043 5.043 0 0 1 3.837-1.782c2.05 0 3.9 1.28 4.66 3.167a3.81 3.81 0 0 1 .552-.042 4.337 4.337 0 0 1 4.244 5.196l-1.07-.216a3.24 3.24 0 0 0-3.173-3.886 3.2 3.2 0 0 0-.782.107l-.51.127-.147-.505c-.488-1.68-2.04-2.855-3.774-2.855a3.954 3.954 0 0 0-3.228 1.687l-.278.395-.427-.227a4.068 4.068 0 0 0-1.925-.5 4.129 4.129 0 0 0-4.124 4.123c0 .474.093.961.277 1.45l-1.023.385zM41.302 44.04c-2.78 0-4.222-1.673-5.509-3.166-.996-1.156-1.937-2.248-3.413-2.493a10.772 10.772 0 0 0-3.556.012l-.186-1.077a11.917 11.917 0 0 1 3.921-.014c1.867.31 2.983 1.606 4.062 2.858 1.37 1.59 2.66 3.096 5.517 2.732l.137 1.084a7.607 7.607 0 0 1-.973.064M54.768 53.954h5.607v-1.093h-5.607z"/>
    </g>
</svg>
