<svg xmlns="http://www.w3.org/2000/svg" width="90" height="78" viewBox="0 0 90 78">
    <g fill="none" fill-rule="evenodd">
        <path fill="#00AB97" d="M81.843 77.22H8.376c-4.089 0-7.434-3.346-7.434-7.434V7.688C.942 3.6 4.287.255 8.376.255h73.467c4.089 0 7.434 3.344 7.434 7.434v62.096c0 4.09-3.345 7.434-7.434 7.434"/>
        <path fill="#FFFFFE" d="M49.949 61.498h-26.83a4.168 4.168 0 0 1-4.163-4.163V18.13h1.093v39.205a3.075 3.075 0 0 0 3.07 3.07h26.83v1.093zM56.035 47.859h1.093V18.13h-1.093z"/>
        <path fill="#FFFFFE" d="M57.128 18.13h-1.093v-.798a1.848 1.848 0 0 0-1.845-1.845H21.895a1.847 1.847 0 0 0-1.845 1.845v.798h-1.094v-.798a2.942 2.942 0 0 1 2.939-2.938H54.19a2.941 2.941 0 0 1 2.938 2.938v.798z"/>
        <path fill="#FFFFFE" d="M57.128 27.264H18.956v-9.68h5.52v1.093H20.05v7.494h35.985v-7.494h-13.93v-1.093h15.023z"/>
        <path fill="#FFFFFE" d="M48.933 21.09a1.259 1.259 0 0 0 0 2.514c.693 0 1.257-.563 1.257-1.256 0-.693-.564-1.257-1.257-1.257m0 3.608a2.354 2.354 0 0 1-2.351-2.351 2.353 2.353 0 0 1 2.35-2.35 2.352 2.352 0 0 1 2.35 2.35 2.353 2.353 0 0 1-2.35 2.35M38.042 31.837c-5.582 0-10.123 4.54-10.123 10.12 0 5.582 4.541 10.123 10.123 10.123 5.581 0 10.121-4.54 10.121-10.122 0-5.581-4.54-10.121-10.12-10.121m0 21.335c-6.186 0-11.217-5.03-11.217-11.214 0-6.183 5.031-11.214 11.216-11.214 6.184 0 11.214 5.03 11.214 11.214s-5.03 11.215-11.214 11.215"/>
        <path fill="#FFFFFE" d="M38.041 49.778c-4.31 0-7.818-3.508-7.818-7.82s3.507-7.819 7.818-7.819v1.093a6.733 6.733 0 0 0-6.725 6.726c0 3.71 3.017 6.727 6.725 6.727a6.734 6.734 0 0 0 6.726-6.727h1.093c0 4.312-3.507 7.82-7.819 7.82M31.649 24.7h-1.093v-3.062H24.19V24.7h-1.094v-4.154h8.552zM49.398 53.798l1.238 8.025a3.053 3.053 0 0 0 3.034 2.601h11.88a3.052 3.052 0 0 0 3.034-2.601l1.237-8.025H49.4zm16.151 11.72H53.67a4.14 4.14 0 0 1-4.114-3.529l-1.432-9.284h22.973l-1.433 9.284a4.14 4.14 0 0 1-4.115 3.529z"/>
        <path fill="#FFFFFE" d="M45.879 53.798H73.34v-1.093H45.879z"/>
        <path fill="#FFFFFE" d="M49.648 53.8a5.19 5.19 0 0 1-.348-1.836 5.223 5.223 0 0 1 5.218-5.217 5.05 5.05 0 0 1 2.02.428 5.043 5.043 0 0 1 3.838-1.782c2.05 0 3.899 1.28 4.659 3.167a3.81 3.81 0 0 1 .553-.042 4.337 4.337 0 0 1 4.244 5.196l-1.071-.217a3.24 3.24 0 0 0-3.173-3.885c-.24 0-.487.034-.781.107l-.511.127-.146-.505c-.488-1.68-2.04-2.855-3.774-2.855a3.957 3.957 0 0 0-3.23 1.687l-.276.395-.427-.227a4.068 4.068 0 0 0-1.925-.5 4.129 4.129 0 0 0-4.124 4.123c0 .474.093.961.277 1.45l-1.023.385zM43.34 46.344c-2.78 0-4.221-1.673-5.508-3.166-.996-1.156-1.937-2.248-3.413-2.493a10.772 10.772 0 0 0-3.556.012l-.186-1.077a11.917 11.917 0 0 1 3.92-.014c1.868.31 2.984 1.606 4.063 2.858 1.37 1.59 2.66 3.096 5.517 2.732l.137 1.084a7.793 7.793 0 0 1-.973.064M56.806 56.258h5.607v-1.093h-5.607z"/>
    </g>
</svg>
