<svg xmlns="http://www.w3.org/2000/svg" width="59" height="57" viewBox="0 0 59 57">
    <g fill="#000" fill-rule="evenodd" transform="translate(0 -1)">
        <path d="M46.648 22.122c-1.918-1.128-3.414-2.914-4.397-4.432a18.582 18.582 0 0 1-1.098-1.93 14.649 14.649 0 0 1-.322-.708c-.013-.03-.013-.033-.013-.033a1.577 1.577 0 0 0-.563-.718l-.021-.113-.012-.006-1.236 5.177 1.808 17.688H28.897l1.807-17.688-1.236-5.177-.011.006-.003.011c-.44.213-2.358 1.201-4.507 3.402-1.804 1.843-3.758 4.56-5.08 8.325V11.824h5.612v-1.34h-.76v-4.63h-.912v4.63h-.79v-4.63h-.911v4.63h-.79v-4.63h-.912v4.63h-.79v-4.63h-.912v4.63h-.79v-4.63H17v4.63h-.79v-4.63H15.3v4.63h-.79v-4.63h-.912v4.63h-.76v1.34h5.612V26.04h1.38c-.11.317-.215.642-.315.975H1.62v1.95h1.54v10.803H1.62v1.95h1.54V52.52h-.406V50.41a.974.974 0 0 0-.972-.975h-.81A.974.974 0 0 0 0 50.41v6.336c0 .539.435.975.972.975h.81a.974.974 0 0 0 .973-.975v-2.274H21.67v2.274c0 .539.435.975.972.975h.81a.974.974 0 0 0 .973-.975V50.41a.974.974 0 0 0-.973-.975h-.81a.974.974 0 0 0-.972.975v2.112h-.406V41.717h1.54v-1.95h-1.54v-8.359c.336-.228.587-.58.67-1.01.095-.497.205-.97.322-1.434h.548v-1.85c1.156-3.368 2.857-5.71 4.403-7.298.494-.506.971-.933 1.41-1.29L24.31 40.737h5.268v14.507a2.434 2.434 0 0 0 2.43 2.437 2.434 2.434 0 0 0 2.432-2.437V40.737h.81v14.507a2.434 2.434 0 0 0 2.431 2.437 2.434 2.434 0 0 0 2.431-2.437V40.737h5.268l-3.59-18.522c.902.956 1.979 1.882 3.253 2.636a11.834 11.834 0 0 0 5.215 1.651v-3.184c-1.357-.132-2.543-.568-3.61-1.196zm-27.33 30.4H5.105V41.716h14.213v10.804zM5.105 39.767V28.964h13.9c-.062.277-.123.554-.177.84-.107.561.097 1.11.49 1.468v8.496H5.105zM52.672 26.434a1.583 1.583 0 0 0-.142-3.154v3.167c.048-.006.094-.008.142-.013z"/>
        <ellipse cx="34.846" cy="6.704" rx="5.468" ry="5.482" transform="rotate(-76.891 34.846 6.704)"/>
        <path d="M32.575 18.83l2.27-.183 2.27.184 1.485-5.165c-.888-.202-2.137-.385-3.755-.385-1.618 0-2.867.183-3.755.385l1.485 5.165zM58.969 54.956c-.008-3.124-2.343-5.75-5.521-6.55a2.092 2.092 0 0 0-1.408-1.433l.008-43.743-1.3.003-.007 43.744a2.09 2.09 0 0 0-1.4 1.44c-3.174.815-5.496 3.453-5.488 6.577.01 3.767 15.126 3.73 15.116-.038zM11.372 48.312a5.073 5.073 0 0 1-3.85-1.771l.771 5.146h6.159l.771-5.147a5.073 5.073 0 0 1-3.85 1.772z"/>
        <path d="M11.372 47.619a4.407 4.407 0 0 0 4.121-2.875l.283-1.885H6.969l.283 1.886a4.406 4.406 0 0 0 4.12 2.874zM5.105 26.284h4.893s-.274-2.55-1.246-3.037c-1.17-.586-1.277-3.056-1.277-3.056h-2.37v6.093z"/>
        <path d="M9.602 18.16H5.105v1.584h2.756c.04.515.26 1.439 1.195 2.158l.444-.58c-.692-.532-.864-1.187-.905-1.578h1.008V18.16zM11.487 26.284h4.892s-.273-2.55-1.246-3.037c-1.169-.586-1.276-3.056-1.276-3.056h-2.37v6.093z"/>
        <path d="M15.984 18.16h-4.497v1.584h2.756c.04.515.26 1.439 1.195 2.158l.444-.58c-.693-.532-.865-1.187-.906-1.578h1.008V18.16zM9.42 34.549h1.717v-2.01H7.673v6.092h3.464v-1.523H9.42zM8.433 31.076h1.945v1.036H8.433zM14.647 34.549h1.717v-2.01H12.9v6.092h3.464v-1.523h-1.717zM13.659 31.076h1.945v1.036h-1.945z"/>
    </g>
</svg>
