<svg xmlns="http://www.w3.org/2000/svg" width="78" height="68" viewBox="0 0 78 68">
    <g fill="none" fill-rule="evenodd">
        <path fill="#4FB197" d="M71 67.488H7.422c-3.538 0-6.433-2.895-6.433-6.434V7.316c0-3.54 2.894-6.434 6.434-6.434H71c3.537 0 6.433 2.895 6.433 6.434v53.738c0 3.539-2.895 6.434-6.433 6.434"/>
        <path fill="#FFF" d="M65.936 48.84c0 .941-.763 1.704-1.704 1.704H17.303a1.704 1.704 0 0 1-1.704-1.703V19.528c0-.94.763-1.703 1.704-1.703h46.93c.94 0 1.703.762 1.703 1.703V48.84zm1.468-29.31a3.172 3.172 0 0 0-3.172-3.172H17.303a3.172 3.172 0 0 0-3.172 3.171V48.84a3.172 3.172 0 0 0 3.172 3.172h46.93a3.172 3.172 0 0 0 3.171-3.172V19.53z"/>
        <path fill="#FFF" d="M48.743 46.35H22.097c-.924 0-1.673-.764-1.673-1.705V24.982c0-.94.749-1.703 1.673-1.703h26.646c.924 0 1.673.762 1.673 1.704v1.341c0 .004-.03.004-.044.008-1.95.582-3.312 2.398-3.312 4.416v8.153c0 2.06 1.468 3.851 3.356 4.421v1.323c0 .941-.749 1.704-1.673 1.704zm1.673-4.592c-1.049-.503-1.888-1.625-1.888-2.857v-8.153c0-1.24.839-2.367 1.888-2.867v13.877zm1.468-16.776c0-1.752-1.406-3.171-3.141-3.171H22.097c-1.735 0-3.141 1.42-3.141 3.172v19.662c0 1.752 1.406 3.172 3.141 3.172h26.646c1.735 0 3.141-1.42 3.141-3.172V24.982zM58.723 46.083a3.176 3.176 0 0 1-3.172-3.172c0-1.463 1.085-2.693 2.343-3.059v2.722a.734.734 0 1 0 1.468 0v-2.77a3.153 3.153 0 0 1 2.533 3.107 3.176 3.176 0 0 1-3.172 3.172m0-7.813a4.645 4.645 0 0 0-4.64 4.641 4.645 4.645 0 0 0 4.64 4.64 4.646 4.646 0 0 0 4.64-4.64 4.646 4.646 0 0 0-4.64-4.64M61.213 33.259a1.556 1.556 0 1 0 1.555 1.555c0-.857-.697-1.555-1.555-1.555M56.232 33.259a1.556 1.556 0 1 0 1.555 1.555c0-.857-.697-1.555-1.555-1.555M61.213 28.435a1.556 1.556 0 1 0 1.555 1.555c0-.857-.697-1.555-1.555-1.555M56.232 28.435a1.556 1.556 0 1 0 1.555 1.555c0-.857-.697-1.555-1.555-1.555M61.87 19.395a.738.738 0 0 0-.073 1.476c.592.03.835.123.933.178.095.45.138 1.923.12 3.112-.008.405.315.586.721.795h.012c.4 0 .727-.369.734-.77.057-3.47-.259-3.89-.41-4.068-.489-.573-1.304-.686-2.037-.723M59.373 20.693h.029c.174-.007.237-.015.302-.024.022-.003.042-.005.118-.008a.733.733 0 1 0-.05-1.467 2.395 2.395 0 0 0-.275.02 1.238 1.238 0 0 1-.152.012.733.733 0 0 0 .028 1.467"/>
    </g>
</svg>
