<svg xmlns="http://www.w3.org/2000/svg" width="78" height="68" viewBox="0 0 78 68">
    <g fill="none" fill-rule="evenodd">
        <path stroke="#3D3D3D" d="M71 67.375H7.422C3.884 67.375.99 64.48.99 60.941V7.203C.989 3.664 3.883.77 7.423.77H71c3.537 0 6.433 2.895 6.433 6.434v53.738c0 3.54-2.895 6.434-6.433 6.434z"/>
        <path fill="#3D3D3D" d="M65.936 48.728c0 .94-.763 1.704-1.704 1.704H17.303a1.704 1.704 0 0 1-1.704-1.704V19.417c0-.941.763-1.704 1.704-1.704h46.93c.94 0 1.703.763 1.703 1.704v29.31zm1.468-29.311a3.172 3.172 0 0 0-3.172-3.172H17.303a3.172 3.172 0 0 0-3.172 3.172v29.31a3.172 3.172 0 0 0 3.172 3.173h46.93a3.172 3.172 0 0 0 3.171-3.172V19.417z"/>
        <path fill="#3D3D3D" d="M48.743 46.237H22.097c-.924 0-1.673-.763-1.673-1.704V24.87c0-.941.749-1.704 1.673-1.704h26.646c.924 0 1.673.763 1.673 1.704v1.342c0 .004-.03.004-.044.008-1.95.582-3.312 2.398-3.312 4.416v8.153c0 2.06 1.468 3.85 3.356 4.42v1.324c0 .94-.749 1.704-1.673 1.704zm1.673-4.591c-1.049-.503-1.888-1.625-1.888-2.857v-8.153c0-1.24.839-2.367 1.888-2.867v13.877zm1.468-16.776c0-1.752-1.406-3.172-3.141-3.172H22.097c-1.735 0-3.141 1.42-3.141 3.172v19.663c0 1.752 1.406 3.172 3.141 3.172h26.646c1.735 0 3.141-1.42 3.141-3.172V24.87zM58.723 45.97A3.176 3.176 0 0 1 55.55 42.8c0-1.463 1.085-2.693 2.343-3.06v2.723a.734.734 0 1 0 1.468 0V39.69a3.153 3.153 0 0 1 2.533 3.108 3.176 3.176 0 0 1-3.172 3.172m0-7.813a4.645 4.645 0 0 0-4.64 4.64 4.645 4.645 0 0 0 4.64 4.64 4.646 4.646 0 0 0 4.64-4.64 4.646 4.646 0 0 0-4.64-4.64M61.213 33.146a1.556 1.556 0 1 0 1.555 1.555c0-.857-.697-1.555-1.555-1.555M56.232 33.146a1.556 1.556 0 1 0 1.555 1.555c0-.857-.697-1.555-1.555-1.555M61.213 28.322a1.556 1.556 0 1 0 1.555 1.555c0-.857-.697-1.555-1.555-1.555M56.232 28.322a1.556 1.556 0 1 0 1.555 1.555c0-.857-.697-1.555-1.555-1.555M61.87 19.283a.738.738 0 0 0-.073 1.475c.592.03.835.124.933.179.095.449.138 1.923.12 3.112-.008.405.315.586.721.795h.012c.4 0 .727-.37.734-.77.057-3.47-.259-3.89-.41-4.068-.489-.573-1.304-.686-2.037-.723M59.373 20.58h.029c.174-.007.237-.015.302-.024.022-.003.042-.005.118-.008a.733.733 0 1 0-.05-1.467 2.395 2.395 0 0 0-.275.021 1.238 1.238 0 0 1-.152.011.733.733 0 0 0 .028 1.467"/>
    </g>
</svg>
