<svg xmlns="http://www.w3.org/2000/svg" width="69" height="39" viewBox="0 0 69 39">
    <path fill="#FFF" fill-rule="evenodd" d="M55.182 12.658c-1.646 0-3.22.308-4.672.863l-3.22-6.322 1.329-3.071h.458c.76 0 1.378-.616 1.378-1.376 0-.76-.617-1.376-1.378-1.376h-7.544c-.762 0-1.38.616-1.38 1.376 0 .76.618 1.376 1.38 1.376h4.084l-.754 1.742H26.02c.148-.238.314-.486.5-.733 1.189-1.583 2.564-2.385 4.089-2.385.76 0 1.378-.616 1.378-1.376C31.987.616 31.37 0 30.609 0c-2.405 0-4.58 1.205-6.295 3.485a13.436 13.436 0 0 0-1.79 3.265l-2.695 6.453a13.098 13.098 0 0 0-3.738-.545c-7.222 0-13.098 5.866-13.098 13.077 0 1.423.232 2.792.655 4.076A12.036 12.036 0 0 0 .93 37.436v1.376h33.858V36.06h-9.679a11.197 11.197 0 0 0-.111-.748 13.031 13.031 0 0 0 4.191-9.576c0-4.94-2.759-9.247-6.817-11.471l1.744-4.18 11.537 16.44c.01.016.022.03.033.045l.05.062c.02.023.042.046.064.067.018.018.036.038.054.054l.073.06c.02.016.038.031.059.046.026.018.053.035.08.051.021.012.041.026.062.037.03.016.06.029.089.043.022.01.043.02.065.028.03.013.064.021.097.032l.064.02c.036.008.075.015.112.021.018.003.036.008.054.01.056.007.114.011.171.011h5.375c.69 6.566 6.268 11.7 13.026 11.7 7.221 0 13.098-5.866 13.098-13.076 0-7.21-5.876-13.078-13.097-13.078zM16.09 15.41c.923 0 1.818.123 2.67.35l-3.942 9.445a1.338 1.338 0 0 0-.073.24 12.175 12.175 0 0 0-1.687-.118c-2.663 0-5.126.863-7.13 2.322-.115-.62-.179-1.26-.179-1.914 0-5.694 4.638-10.325 10.341-10.325zm0 20.65c-4.017 0-7.503-2.3-9.215-5.648a9.34 9.34 0 0 1 6.183-2.332c4.06 0 7.524 2.592 8.823 6.206a10.305 10.305 0 0 1-5.791 1.773zm-12.302 0a9.302 9.302 0 0 1 1.207-3.387c.82 1.3 1.86 2.447 3.072 3.386h-4.28zm22.644-10.325c0 2.5-.896 4.795-2.383 6.584a12.19 12.19 0 0 0-6.634-6.184l3.888-9.313c3.065 1.795 5.129 5.116 5.129 8.913zm15.723-1.376h-3.174l6.816-14.02 2.257 4.433c-3.228 2.098-5.477 5.574-5.899 9.587zm7.155-7.118l3.624 7.118h-8a10.33 10.33 0 0 1 4.376-7.118zm-5.742-8.619L36.566 23.03 26.458 8.622h17.11zM55.182 36.06c-5.235 0-9.572-3.903-10.248-8.949h10.253a1.376 1.376 0 0 0 1.17-2.102l-4.591-9.018a10.324 10.324 0 0 1 3.416-.581c5.701 0 10.341 4.632 10.341 10.325 0 5.694-4.64 10.325-10.341 10.325z"/>
</svg>
