<svg xmlns="http://www.w3.org/2000/svg" width="59" height="43" viewBox="0 0 59 43">
    <path fill="#FFF" fill-rule="evenodd" d="M7.375 25.8c3.688 0 3.688-1.842 7.375-1.842 2.943 0 3.537 1.173 5.531 1.648V7.372A7.373 7.373 0 0 1 27.656.001c4.073 0 7.375 3.3 7.375 7.371a.922.922 0 0 1-1.843 0 5.53 5.53 0 0 0-5.532-5.529 5.53 5.53 0 0 0-5.531 5.529v3.686h18.438V7.372A7.373 7.373 0 0 1 47.937.001c4.073 0 7.376 3.3 7.376 7.371a.922.922 0 0 1-1.844 0 5.53 5.53 0 0 0-5.532-5.529 5.53 5.53 0 0 0-5.53 5.529v16.781a7.894 7.894 0 0 1 1.843-.195c3.688 0 3.688 1.843 7.375 1.843 3.688 0 3.688-1.843 7.375-1.843V25.8c-3.688 0-3.688 1.842-7.375 1.842-3.688 0-3.688-1.842-7.375-1.842-3.688 0-3.688 1.842-7.375 1.842-3.688 0-3.688-1.842-7.375-1.842-3.688 0-3.688 1.842-7.375 1.842-3.688 0-3.688-1.842-7.375-1.842-3.688 0-3.688 1.842-7.375 1.842-3.688 0-3.688-1.842-7.375-1.842v-1.843c3.688 0 3.688 1.843 7.375 1.843zM0 31.33c3.688 0 3.688 1.842 7.375 1.842 3.688 0 3.688-1.843 7.375-1.843 3.688 0 3.688 1.843 7.375 1.843 3.688 0 3.688-1.843 7.375-1.843 3.688 0 3.688 1.843 7.375 1.843 3.688 0 3.688-1.843 7.375-1.843 3.688 0 3.688 1.843 7.375 1.843 3.688 0 3.688-1.843 7.375-1.843v1.843c-3.688 0-3.688 1.844-7.375 1.844-3.688 0-3.688-1.844-7.375-1.844-3.688 0-3.688 1.844-7.375 1.844-3.688 0-3.688-1.844-7.375-1.844-3.688 0-3.688 1.844-7.375 1.844-3.688 0-3.688-1.844-7.375-1.844-3.688 0-3.688 1.844-7.375 1.844-3.688 0-3.688-1.844-7.375-1.844V31.33zm22.125-5.53c3.688 0 3.688-1.842 7.375-1.842 3.688 0 3.688 1.843 7.375 1.843 1.844 0 2.766-.461 3.688-.922v-4.607H22.125v5.529zm0-7.37h18.438V12.9H22.125v5.53zM0 38.7c3.688 0 3.688 1.843 7.375 1.843 3.688 0 3.688-1.843 7.375-1.843 3.688 0 3.688 1.843 7.375 1.843 3.688 0 3.688-1.843 7.375-1.843 3.688 0 3.688 1.843 7.375 1.843 3.688 0 3.688-1.843 7.375-1.843 3.688 0 3.688 1.843 7.375 1.843 3.688 0 3.688-1.843 7.375-1.843v1.843c-3.688 0-3.688 1.842-7.375 1.842-3.688 0-3.688-1.842-7.375-1.842-3.688 0-3.688 1.842-7.375 1.842-3.688 0-3.688-1.842-7.375-1.842-3.688 0-3.688 1.842-7.375 1.842-3.688 0-3.688-1.842-7.375-1.842-3.688 0-3.688 1.842-7.375 1.842-3.688 0-3.688-1.842-7.375-1.842v-1.843z"/>
</svg>
