<svg xmlns="http://www.w3.org/2000/svg" width="79" height="69" viewBox="0 0 79 69">
    <g fill="none" fill-rule="evenodd">
        <path stroke="#3D3D3D" d="M71.43 67.795H7.854c-3.54 0-6.434-2.895-6.434-6.434V7.623c0-3.54 2.895-6.434 6.434-6.434H71.43c3.538 0 6.434 2.895 6.434 6.434V61.36c0 3.539-2.896 6.434-6.434 6.434z"/>
        <path fill="#3D3D3D" d="M17.434 48.915h46.429V17.299H17.434v31.616zm47.203-33.164H16.66a.773.773 0 0 0-.774.774v33.163c0 .428.346.774.774.774h47.977a.773.773 0 0 0 .773-.774V16.525a.773.773 0 0 0-.773-.774zM51.819 54.24a.774.774 0 1 0 0-1.547H30.815a.775.775 0 0 0 0 1.548h21.004z"/>
        <path fill="#3D3D3D" d="M29.761 28.835h.004l3.907-.012c-.004.031-.009.062-.009.095l.117 9.764c.004.424.35.765.773.765h.009c.428 0 .77-.337.765-.765l-.116-9.783c-.001-.028-.006-.054-.009-.08l4.332-.014c.427-.003.771-.315.768-.742a.78.78 0 0 0-.774-.776h-.005l-9.767.053a.764.764 0 0 0-.769.766c.003.426.349.73.774.73M46.632 38.527c.113.3.4.478.72.478h.004a.755.755 0 0 0 .721-.47l4.18-10.71a.774.774 0 0 0-1.443-.562l-3.448 8.852-3.35-8.848a.776.776 0 0 0-.998-.452.768.768 0 0 0-.449.993l4.063 10.72z"/>
    </g>
</svg>
