<svg xmlns="http://www.w3.org/2000/svg" width="77" height="67" viewBox="0 0 77 67">
    <g fill="none" fill-rule="evenodd">
        <path fill="#4FB197" d="M70.43 66.907H6.854c-3.54 0-6.434-2.895-6.434-6.434V6.735C.419 3.196 3.314.301 6.853.301H70.43c3.538 0 6.434 2.895 6.434 6.434v53.738c0 3.54-2.896 6.434-6.434 6.434"/>
        <path fill="#FFF" d="M16.434 48.027h46.429V16.411H16.434v31.616zm47.203-33.164H15.66a.774.774 0 0 0-.774.774v33.164c0 .427.346.774.774.774h47.977a.774.774 0 0 0 .773-.774V15.637a.774.774 0 0 0-.773-.774zM50.819 53.353a.774.774 0 1 0 0-1.547H29.815a.775.775 0 0 0 0 1.547h21.004z"/>
        <path fill="#FFF" d="M28.761 27.948h.004l3.907-.012c-.004.03-.009.062-.009.095l.117 9.764c.004.424.35.765.773.765h.009c.428 0 .77-.337.765-.765l-.116-9.783c-.001-.028-.006-.054-.009-.081l4.332-.013c.427-.003.771-.315.768-.742a.78.78 0 0 0-.774-.776h-.005l-9.767.053a.764.764 0 0 0-.769.766c.003.426.349.729.774.729M45.632 37.64c.113.299.4.478.72.478h.004a.755.755 0 0 0 .721-.471l4.18-10.71a.774.774 0 0 0-1.443-.561l-3.448 8.852-3.35-8.848a.776.776 0 0 0-.998-.452.768.768 0 0 0-.449.993l4.063 10.719z"/>
    </g>
</svg>
