<svg xmlns="http://www.w3.org/2000/svg" width="43" height="58" viewBox="0 0 43 58">
    <g fill="#000" fill-rule="evenodd">
        <path d="M21.17 14.2c-9.99 0-18.127 8.2-18.127 18.267 0 10.066 8.137 18.266 18.126 18.266 9.99 0 18.126-8.2 18.126-18.266C39.295 22.4 31.158 14.2 21.17 14.2zm12.37 18.333c0 1.734.265 3.467.86 5.134-2.117 5.466-7.41 9.133-13.23 9.133-7.807 0-14.224-6.4-14.224-14.333 0-7.867 6.35-14.334 14.223-14.334 5.822 0 11.18 3.667 13.231 9.134a15.976 15.976 0 0 0-.86 5.266z"/>
        <path d="M37.046.133H5.292C2.382.133 0 2.533 0 5.467v50.2c0 .866.662 1.533 1.522 1.533h39.361c.86 0 1.522-.667 1.522-1.533v-50.2C42.338 2.533 39.957.133 37.046.133zm3.77 56.067H1.523c-.265 0-.53-.2-.53-.533V12.4h40.354v43.267a.524.524 0 0 1-.53.533zm.53-44.8H.992V5.467c0-2.4 1.919-4.334 4.3-4.334h31.754c2.382 0 4.3 1.934 4.3 4.334V11.4z"/>
        <path d="M24.946 3.405h-7.554c-.69 0-1.244.557-1.244 1.253v3.017c0 .697.553 1.254 1.244 1.254h7.554c.691 0 1.244-.557 1.244-1.254V4.658c0-.696-.553-1.253-1.244-1.253zm.507 4.224c0 .278-.23.51-.507.51h-7.554a.513.513 0 0 1-.507-.51V4.612c0-.279.23-.511.507-.511h7.554c.277 0 .507.232.507.51V7.63z"/>
    </g>
</svg>
