<svg xmlns="http://www.w3.org/2000/svg" width="54" height="43" viewBox="0 0 54 43">
    <path fill="#FFF" fill-rule="evenodd" d="M27.029.614C16.947.614 7.696 4 .479 9.464c-.512.392-.621 1.215-.23 1.728.393.512 1.216.622 1.728.23 6.8-5.15 15.52-8.35 25.052-8.35 9.531 0 18.25 3.2 25.05 8.35.514.392 1.337.282 1.729-.23.392-.513.282-1.336-.23-1.728C46.36 4 37.11.614 27.027.614zm0 11.672c-7.225 0-13.96 2.187-19.197 6.411-.577.373-.721 1.27-.29 1.805.432.535 1.34.582 1.826.096 4.757-3.839 10.932-5.855 17.66-5.855 6.73 0 12.904 2.016 17.661 5.855.486.486 1.394.439 1.826-.096.432-.534.287-1.432-.29-1.805-5.236-4.224-11.972-6.411-19.196-6.411zm0 11.057c-4.412 0-8.602 1.381-11.825 3.935-.508.402-.604 1.23-.202 1.738.402.507 1.23.603 1.737.201 2.752-2.18 6.398-3.417 10.29-3.417 3.89 0 7.537 1.237 10.289 3.417.507.402 1.335.306 1.737-.201.402-.508.306-1.336-.201-1.738-3.223-2.554-7.414-3.935-11.825-3.935zm0 9.214a4.914 4.914 0 1 0 0 9.829 4.914 4.914 0 0 0 0-9.829z"/>
</svg>
