<svg xmlns="http://www.w3.org/2000/svg" width="101" height="101" viewBox="0 0 101 101">
    <g fill="none" fill-rule="evenodd">
        <circle cx="50.5" cy="50.5" r="50.5" fill="#0B9268"/>
        <path fill="#FFF" d="M73.483 33.043H27.41A4.411 4.411 0 0 0 23 37.448v17.326a4.411 4.411 0 0 0 4.409 4.405h46.085a4.411 4.411 0 0 0 4.409-4.405V37.448a4.427 4.427 0 0 0-4.42-4.405zm1.362 21.731a1.35 1.35 0 0 1-1.35 1.35H27.408a1.35 1.35 0 0 1-1.351-1.35V37.448c0-.745.605-1.35 1.35-1.35h46.086c.746 0 1.35.605 1.35 1.35v17.326z"/>
        <path fill="#FFF" d="M70.469 50.294H30.423a1.521 1.521 0 1 0 0 3.045H70.48a1.521 1.521 0 1 0-.01-3.045zM70.609 38.722c-.843 0-1.524.68-1.524 1.522v.507c0 .842.681 1.522 1.524 1.522s1.524-.68 1.524-1.522v-.507c0-.842-.681-1.522-1.524-1.522zM70.609 44.486c-.843 0-1.524.68-1.524 1.523v.507c0 .842.681 1.522 1.524 1.522s1.524-.68 1.524-1.522v-.507c0-.832-.681-1.523-1.524-1.523zM34.335 61.51a1.52 1.52 0 0 0-1.848 1.113l-1.134 4.512a1.514 1.514 0 0 0 1.113 1.846 1.538 1.538 0 0 0 1.847-1.112l1.135-4.512a1.524 1.524 0 0 0-1.113-1.846zM45.076 63.27a1.51 1.51 0 0 0-1.643 1.393l-.378 4.642c-.065.842.551 1.598 1.394 1.641a1.536 1.536 0 0 0 1.642-1.393l.379-4.642c.075-.83-.552-1.565-1.394-1.64zM68.405 62.623a1.534 1.534 0 0 0-1.848-1.112 1.524 1.524 0 0 0-1.113 1.846l1.135 4.512c.172.691.918 1.328 1.847 1.112a1.519 1.519 0 0 0 1.113-1.846l-1.134-4.512zM55.816 63.27a1.51 1.51 0 0 0-1.394 1.641l.379 4.642c.064.8.778 1.447 1.642 1.393.843-.054 1.459-.799 1.394-1.64l-.378-4.643c-.076-.831-.8-1.468-1.643-1.393z"/>
    </g>
</svg>
