<svg xmlns="http://www.w3.org/2000/svg" width="62" height="42" viewBox="0 0 62 42">
    <g fill="#A2A2A2" fill-rule="evenodd" opacity=".777">
        <path d="M20.15 10.9c-.568 0-1.033-.45-1.033-1v-.75c0-.55.465-1 1.033-1 .568 0 1.033.45 1.033 1v.75c0 .55-.465 1-1.033 1zM20.15 15.3c-.568 0-1.033-.45-1.033-1v-.8c0-.55.465-1 1.033-1 .568 0 1.033.45 1.033 1v.75c0 .6-.465 1.05-1.033 1.05zM20.15 19.65c-.568 0-1.033-.45-1.033-1v-.75c0-.55.465-1 1.033-1 .568 0 1.033.45 1.033 1v.75c0 .55-.465 1-1.033 1zM16.223 10.9c-.568 0-1.033-.45-1.033-1v-.75c0-.55.465-1 1.033-1 .569 0 1.034.45 1.034 1v.75c0 .55-.465 1-1.034 1zM17.257 14.3c0 .55-.465 1-1.034 1-.568 0-1.033-.45-1.033-1v-.8c0-.55.465-1 1.033-1 .569 0 1.034.45 1.034 1v.8zM17.257 18.65c0 .55-.465 1-1.034 1-.568 0-1.033-.45-1.033-1v-.75c0-.55.465-1 1.033-1 .569 0 1.034.45 1.034 1v.75zM12.297 10.9c-.569 0-1.034-.45-1.034-1v-.75c0-.55.465-1 1.034-1 .568 0 1.033.45 1.033 1v.75c0 .55-.465 1-1.033 1zM13.33 14.3c0 .55-.465 1-1.033 1-.569 0-1.034-.45-1.034-1v-.8c0-.55.465-1 1.034-1 .568 0 1.033.45 1.033 1v.8zM13.33 18.65c0 .55-.465 1-1.033 1-.569 0-1.034-.45-1.034-1v-.75c0-.55.465-1 1.034-1 .568 0 1.033.45 1.033 1v.75z"/>
        <path d="M1.033 21.5h3.049V5.45c0-3 2.48-5.4 5.528-5.4h6.613c.569 0 1.034.45 1.034 1v3.1h2.893c.568 0 1.033.45 1.033 1s-.465 1-1.033 1h-7.905c-.568 0-1.033-.45-1.033-1s.465-1 1.033-1h2.893v-2.1h-5.58c-1.911 0-3.461 1.55-3.461 3.4V21.5h54.87c.568 0 1.033.45 1.033 1v5c0 5.3-4.082 9.7-9.3 10.35l.878 2.8c.155.55-.155 1.1-.671 1.25-.104.05-.207.05-.31.05-.465 0-.827-.3-.982-.7l-1.033-3.3H11.418l-1.033 3.3c-.155.45-.568.7-.982.7-.103 0-.206 0-.31-.05-.568-.15-.826-.7-.671-1.25l.878-2.8C4.082 37.2 0 32.8 0 27.5v-5c0-.55.465-1 1.033-1zm1.034 6c0 4.65 3.875 8.45 8.576 8.45h40.714c4.701 0 8.576-3.8 8.576-8.45v-4H2.067v4z"/>
    </g>
</svg>
