<svg xmlns="http://www.w3.org/2000/svg" width="74" height="64" viewBox="0 0 74 64">
    <path fill="#A2A2A2" fill-rule="nonzero" d="M68.133 60.031v-4.068a2.07 2.07 0 0 0 1.363-1.94 2.074 2.074 0 1 0-4.149 0c0 .893.57 1.649 1.364 1.94v4.068h-4.2V6.644H54.67V.206H19.65v6.438h-7.843V60.03h-4.2v-4.068a2.07 2.07 0 0 0 1.363-1.94 2.074 2.074 0 0 0-4.147 0c0 .893.57 1.649 1.363 1.94v4.068H.535v3.243h73.249v-3.243h-5.65zM56.698 9.458h2.974V57.78h-2.974V9.458zM39.82 33.456v9.053h-5.36v-9.053h5.36zm-5.357-6.342v-9.08h5.354v9.08h-5.354zM49.775 48.78v8.982h-5.267V48.78h5.267zm-5.254-6.297v-8.998h5.243v8.998H44.52zM44.508 3.07h5.267v8.982h-5.267V3.07zm-.03 14.986h5.326v9.036h-5.326v-9.036zM34.46 3.08h5.361v9.028H34.46V3.08zm0 45.675h5.361v9.028H34.46v-9.028zM24.514 3.117H29.9v8.97h-5.386v-8.97zm.007 23.979v-9.043h5.372v9.043H24.52zm5.359 6.363v9.048H24.53v-9.048h5.349zm-5.366 15.326H29.9v8.97h-5.386v-8.97zM14.645 9.458h2.975V57.78h-2.975V9.458z"/>
</svg>
