<svg xmlns="http://www.w3.org/2000/svg" width="101" height="101" viewBox="0 0 101 101">
    <g fill="none" fill-rule="evenodd">
        <circle cx="50.5" cy="50.5" r="50.5" fill="#0B9268"/>
        <g fill="#FFF">
            <path d="M36.313 38C34.49 38 33 39.519 33 41.375v18.9c0 1.856 1.49 3.375 3.313 3.375 1.821 0 3.312-1.519 3.312-3.375V41.206c0-1.687-1.49-3.206-3.313-3.206zM28.319 41C26.994 41 26 42.013 26 43.362v14.85c0 1.35.994 2.363 2.319 2.363s2.319-1.013 2.319-2.363v-14.85c0-1.35-.994-2.362-2.32-2.362zM43 49h17.556v2.7H43zM66.313 38C64.49 38 63 39.519 63 41.375v19.069c0 1.856 1.49 3.375 3.313 3.375 1.821 0 3.312-1.519 3.312-3.375v-18.9c0-2.025-1.49-3.544-3.313-3.544zM75.319 41C73.994 41 73 42.013 73 43.362v14.85c0 1.35.994 2.363 2.319 2.363s2.318-1.013 2.318-2.363v-14.85c0-1.35-.993-2.362-2.318-2.362z"/>
        </g>
    </g>
</svg>
