<svg xmlns="http://www.w3.org/2000/svg" width="101" height="101" viewBox="0 0 101 101">
    <g fill="none" fill-rule="evenodd">
        <circle cx="50.5" cy="50.5" r="50.5" fill="#0B9268"/>
        <path fill="#FFF" d="M50.748 62.538c3.323 2.276 9.567 5.276 17.995 5 0 0-4.597-4.572-11.68-6.413C68.445 61.198 77 54.698 77 54.698c-8.934-1.51-16.194.168-20.994 2.04 12.014-8.205 15.847-21.65 15.847-21.65-8.811 4.472-14.456 10.49-17.947 15.546.925-7.443.68-17.439-3.554-28.634 0 0-6.262 12.753-4.23 28.21-3.513-4.965-9.087-10.774-17.652-15.121 0 0 3.673 12.888 15.103 21.128-4.762-1.638-11.48-2.887-19.573-1.519 0 0 8.306 6.311 19.441 6.425-7.087 1.84-11.686 6.414-11.686 6.414 8.514.28 14.647-2.803 17.86-4.96 0 0-.654 5.901 1.252 9.682l.886-.167s-1.838-5.5-1.005-9.554z"/>
    </g>
</svg>
