<svg xmlns="http://www.w3.org/2000/svg" width="101" height="101" viewBox="0 0 101 101">
    <g fill="none" fill-rule="evenodd">
        <circle cx="50.5" cy="50.5" r="50.5" fill="#0B9268"/>
        <path fill="#FFF" d="M53.959 68.62l.372.134c1.11.397 1.886.568 2.984.568 3.451 0 6.324-2.957 6.324-6.899 0-6.155-6.207-12.542-12.647-12.542s-12.647 6.387-12.647 12.542c0 4.135 2.783 6.899 6.323 6.899 1.098 0 1.875-.171 2.985-.568l.372-.135c1.118-.403 1.804-.551 2.967-.551 1.162 0 1.849.148 2.967.551zm-6.798-2.358l-.367.132c-.858.307-1.367.42-2.126.42-2.143 0-3.794-1.64-3.794-4.39 0-4.79 5.096-10.034 10.118-10.034s10.117 5.243 10.117 10.033c0 2.577-1.761 4.39-3.794 4.39-.758 0-1.267-.112-2.126-.419l-.366-.132c-1.372-.495-2.333-.703-3.831-.703-1.499 0-2.46.208-3.831.703zm2.494-27.232c-.651-3.664-3.136-6.456-5.878-5.976-2.743.48-4.115 3.946-3.463 7.61.651 3.664 3.136 6.456 5.878 5.977 2.743-.48 4.115-3.946 3.463-7.61zm-6.85 1.198c-.44-2.475.37-4.522 1.41-4.704 1.042-.182 2.509 1.467 2.95 3.942.44 2.475-.37 4.522-1.412 4.704-1.04.182-2.508-1.466-2.948-3.942zm12.015-.762c.44-2.475 1.907-4.124 2.948-3.942 1.04.182 1.85 2.229 1.41 4.704-.44 2.476-1.906 4.124-2.947 3.942-1.041-.182-1.852-2.229-1.411-4.704zm6.85 1.198c.651-3.664-.72-7.13-3.463-7.61-2.742-.48-5.227 2.312-5.878 5.976-.652 3.665.72 7.131 3.462 7.61 2.743.48 5.227-2.312 5.879-5.976zm8.651 9.787c2.106-2.874 2.302-6.48.066-8.092-2.236-1.611-5.634-.31-7.74 2.563-2.105 2.873-2.301 6.48-.065 8.091 2.236 1.611 5.634.311 7.74-2.562zm-5.627-4.055c1.385-1.89 3.334-2.636 4.206-2.008.872.629.76 2.698-.625 4.588-1.385 1.89-3.334 2.636-4.206 2.008-.872-.628-.76-2.698.625-4.588zm-30.985 2.58c-1.385-1.89-1.498-3.96-.626-4.588.872-.628 2.822.118 4.207 2.008 1.384 1.89 1.497 3.96.625 4.588-.872.628-2.822-.118-4.206-2.008zm5.627-4.054c-2.105-2.874-5.504-4.174-7.74-2.563-2.235 1.611-2.039 5.218.066 8.092 2.105 2.873 5.504 4.173 7.74 2.562 2.236-1.61 2.04-5.218-.066-8.091z"/>
    </g>
</svg>
