<svg xmlns="http://www.w3.org/2000/svg" width="101" height="101" viewBox="0 0 101 101">
    <g fill="none" fill-rule="evenodd">
        <circle cx="50.297" cy="50.297" r="50.297" fill="#0B9268"/>
        <path fill="#FFF" d="M28.375 54.8c3.688 0 3.688-1.842 7.375-1.842 2.943 0 3.537 1.173 5.531 1.648V36.372a7.373 7.373 0 0 1 7.375-7.371c4.073 0 7.375 3.3 7.375 7.371a.922.922 0 0 1-1.843 0 5.53 5.53 0 0 0-5.532-5.529 5.53 5.53 0 0 0-5.531 5.529v3.686h18.438v-3.686a7.373 7.373 0 0 1 7.374-7.371c4.073 0 7.376 3.3 7.376 7.371a.922.922 0 0 1-1.844 0 5.53 5.53 0 0 0-5.531-5.529 5.53 5.53 0 0 0-5.532 5.529v16.781a7.894 7.894 0 0 1 1.844-.195c3.688 0 3.688 1.843 7.375 1.843 3.688 0 3.688-1.843 7.375-1.843V54.8c-3.688 0-3.688 1.842-7.375 1.842-3.688 0-3.688-1.842-7.375-1.842-3.688 0-3.688 1.842-7.375 1.842-3.688 0-3.688-1.842-7.375-1.842-3.688 0-3.688 1.842-7.375 1.842-3.688 0-3.688-1.842-7.375-1.842-3.688 0-3.688 1.842-7.375 1.842-3.688 0-3.688-1.842-7.375-1.842v-1.843c3.688 0 3.688 1.843 7.375 1.843zM21 60.33c3.688 0 3.688 1.842 7.375 1.842 3.688 0 3.688-1.843 7.375-1.843 3.688 0 3.688 1.843 7.375 1.843 3.688 0 3.688-1.843 7.375-1.843 3.688 0 3.688 1.843 7.375 1.843 3.688 0 3.688-1.843 7.375-1.843 3.688 0 3.688 1.843 7.375 1.843 3.688 0 3.688-1.843 7.375-1.843v1.843c-3.688 0-3.688 1.844-7.375 1.844-3.688 0-3.688-1.844-7.375-1.844-3.688 0-3.688 1.844-7.375 1.844-3.688 0-3.688-1.844-7.375-1.844-3.688 0-3.688 1.844-7.375 1.844-3.688 0-3.688-1.844-7.375-1.844-3.688 0-3.688 1.844-7.375 1.844-3.688 0-3.688-1.844-7.375-1.844V60.33zm22.125-5.53c3.688 0 3.688-1.842 7.375-1.842 3.688 0 3.688 1.843 7.375 1.843 1.844 0 2.766-.461 3.688-.922v-4.607H43.124v5.529zm0-7.37h18.438V41.9H43.124v5.53zM21 67.7c3.688 0 3.688 1.843 7.375 1.843 3.688 0 3.688-1.843 7.375-1.843 3.688 0 3.688 1.843 7.375 1.843 3.688 0 3.688-1.843 7.375-1.843 3.688 0 3.688 1.843 7.375 1.843 3.688 0 3.688-1.843 7.375-1.843 3.688 0 3.688 1.843 7.375 1.843 3.688 0 3.688-1.843 7.375-1.843v1.843c-3.688 0-3.688 1.842-7.375 1.842-3.688 0-3.688-1.842-7.375-1.842-3.688 0-3.688 1.842-7.375 1.842-3.688 0-3.688-1.842-7.375-1.842-3.688 0-3.688 1.842-7.375 1.842-3.688 0-3.688-1.842-7.375-1.842-3.688 0-3.688 1.842-7.375 1.842-3.688 0-3.688-1.842-7.375-1.842v-1.843z"/>
    </g>
</svg>
