<svg xmlns="http://www.w3.org/2000/svg" xmlns:xlink="http://www.w3.org/1999/xlink" width="105" height="105" viewBox="0 0 105 105">
    <defs>
        <circle id="a" cx="50.297" cy="50.297" r="50.297"/>
    </defs>
    <g fill="none" fill-rule="evenodd">
        <g transform="translate(2 2)">
            <use fill="#FFF" xlink:href="#a"/>
            <circle cx="50.297" cy="50.297" r="51.297" stroke="#4A4A4A" stroke-width="2"/>
        </g>
        <g fill="#4A4A4A">
            <path d="M52.17 38.2c-9.99 0-18.127 8.2-18.127 18.267 0 10.066 8.137 18.266 18.126 18.266 9.99 0 18.126-8.2 18.126-18.266C70.295 46.4 62.158 38.2 52.17 38.2zm12.37 18.333c0 1.734.265 3.467.86 5.134-2.117 5.466-7.41 9.133-13.23 9.133-7.807 0-14.224-6.4-14.224-14.333 0-7.867 6.35-14.334 14.223-14.334 5.822 0 11.18 3.667 13.231 9.134a15.976 15.976 0 0 0-.86 5.266z"/>
            <path d="M68.046 24.133H36.292c-2.91 0-5.292 2.4-5.292 5.334v50.2c0 .866.662 1.533 1.522 1.533h39.361c.86 0 1.522-.667 1.522-1.533v-50.2c-.067-2.934-2.448-5.334-5.359-5.334zm3.77 56.067H32.523c-.265 0-.53-.2-.53-.533V36.4h40.354v43.267a.524.524 0 0 1-.53.533zm.53-44.8H31.992v-5.933c0-2.4 1.919-4.334 4.3-4.334h31.754c2.382 0 4.3 1.934 4.3 4.334V35.4z"/>
            <path d="M55.946 27.405h-7.554c-.69 0-1.244.557-1.244 1.253v3.017c0 .697.553 1.254 1.244 1.254h7.554c.691 0 1.244-.557 1.244-1.254v-3.017c0-.696-.553-1.253-1.244-1.253zm.507 4.224c0 .278-.23.51-.507.51h-7.554a.513.513 0 0 1-.507-.51v-3.017c0-.279.23-.511.507-.511h7.554c.277 0 .507.232.507.51v3.018z"/>
        </g>
    </g>
</svg>
